<svg width="324" height="264" viewBox="0 0 324 264" fill="none" xmlns="http://www.w3.org/2000/svg">
<path d="M241.519 106.784H205.802V55.645H241.519V106.784Z" fill="#E3E3E2"/>
<path d="M239.73 106.784H204.013V55.645H239.73V106.784Z" fill="#F8F8F9"/>
<path d="M235.292 101.245H208.45V61.1838H235.292V101.245Z" fill="white"/>
<path d="M235.293 101.245C235.293 101.245 235.289 101.177 235.288 101.049C235.286 100.917 235.285 100.728 235.282 100.481C235.28 99.9774 235.276 99.2401 235.272 98.284C235.266 96.3634 235.258 93.5656 235.247 90.0311C235.237 82.9672 235.221 72.9633 235.204 61.1837L235.293 61.2716C227.092 61.2737 218.005 61.2766 208.453 61.2794H208.45L208.547 61.1837C208.54 76.2965 208.533 90.2302 208.528 101.245L208.45 101.168C216.625 101.185 223.325 101.199 227.988 101.209C230.32 101.217 232.142 101.224 233.386 101.228C234.004 101.232 234.478 101.235 234.803 101.237C235.124 101.239 235.293 101.245 235.293 101.245C235.293 101.245 235.134 101.251 234.82 101.254C234.498 101.255 234.029 101.258 233.417 101.261C232.177 101.266 230.361 101.273 228.036 101.281C223.362 101.291 216.645 101.305 208.45 101.321L208.373 101.322V101.245C208.367 90.2302 208.36 76.2965 208.354 61.1837L208.353 61.0873H208.45H208.453C218.005 61.0901 227.092 61.0929 235.293 61.0958H235.382V61.1837C235.364 72.9872 235.349 83.0108 235.338 90.0888C235.328 93.6148 235.32 96.4064 235.314 98.3213C235.309 99.2703 235.305 100.002 235.304 100.501C235.301 100.744 235.3 100.929 235.298 101.059C235.297 101.184 235.293 101.245 235.293 101.245Z" fill="#E3E3E2"/>
<path d="M239.831 55.6449C239.851 55.6611 239.609 56.0108 239.194 56.5581C238.779 57.1069 238.19 57.8526 237.518 58.6581C236.846 59.4643 236.218 60.1784 235.753 60.6856C235.288 61.1929 234.987 61.4954 234.967 61.4778C234.946 61.4602 235.211 61.1267 235.649 60.597C236.128 60.0229 236.717 59.3173 237.369 58.5364C238.019 57.7555 238.608 57.0485 239.086 56.4744C239.528 55.9482 239.809 55.6281 239.831 55.6449Z" fill="#E3E3E2"/>
<path d="M235.429 101.116C236.762 103.21 238.336 105.155 240.111 106.9L235.429 101.116Z" fill="white"/>
<path d="M240.111 106.9C240.094 106.918 239.775 106.644 239.295 106.166C238.815 105.689 238.179 105.001 237.53 104.199C236.879 103.396 236.341 102.631 235.974 102.064C235.607 101.496 235.409 101.129 235.429 101.116C235.454 101.101 235.694 101.442 236.088 101.988C236.482 102.534 237.035 103.28 237.681 104.079C238.327 104.877 238.943 105.574 239.396 106.073C239.847 106.573 240.131 106.88 240.111 106.9Z" fill="#E3E3E2"/>
<path d="M204.007 106.743C205.567 104.843 207.127 102.942 208.686 101.041L204.007 106.743Z" fill="white"/>
<path d="M208.686 101.041C208.728 101.075 207.714 102.379 206.422 103.953C205.13 105.527 204.049 106.777 204.007 106.743C203.966 106.71 204.979 105.406 206.271 103.832C207.563 102.258 208.644 101.008 208.686 101.041Z" fill="#E3E3E2"/>
<path d="M204.013 55.6451C204.055 55.612 205.071 56.8129 206.283 58.3261C207.496 59.8408 208.444 61.0944 208.402 61.1268C208.36 61.1598 207.344 59.9597 206.132 58.4457C204.919 56.9318 203.97 55.6781 204.013 55.6451Z" fill="#E3E3E2"/>
<path d="M226.93 94.5253H217.942V69.3178H226.93V94.5253Z" fill="#E3E3E2"/>
<path d="M170.47 198.744C167.195 199.685 164.546 202.232 162.996 205.234C161.444 208.235 160.899 211.658 160.852 215.027C160.762 221.546 163.624 228.498 166.943 234.133C173.03 230.099 175.351 222.018 176.268 217.846C177.717 211.251 176.282 198.463 170.47 198.744Z" fill="#F8F8F9"/>
<path d="M159.209 243.94C160.554 240.418 159.537 236.241 157.034 233.403C154.532 230.564 150.723 229.018 146.917 228.829C145.157 228.742 143.209 229.007 142.029 230.298C140.925 231.507 140.792 233.369 141.365 234.895C141.937 236.421 143.11 237.654 144.384 238.686C148.752 242.225 153.637 244.857 159.209 243.94Z" fill="#F8F8F9"/>
<path d="M163.779 259.619C163.867 259.608 163.849 257.97 163.582 255.313C163.447 253.983 163.093 252.391 162.496 250.726C161.891 249.07 161.264 247.235 160.312 245.397C158.449 241.717 155.787 238.925 153.532 237.419C152.407 236.653 151.404 236.189 150.708 235.896C149.995 235.633 149.592 235.524 149.575 235.569C149.522 235.69 151.105 236.254 153.223 237.836C155.336 239.406 157.838 242.147 159.652 245.729C160.572 247.498 161.219 249.322 161.853 250.951C162.477 252.582 162.864 254.081 163.064 255.384C163.461 257.992 163.664 259.633 163.779 259.619Z" fill="#E3E3E2"/>
<path d="M170.692 208.577C170.642 208.569 170.468 209.326 170.197 210.703C169.926 212.079 169.561 214.075 169.131 216.546C168.274 221.486 167.167 228.325 166.131 235.906C165.096 243.491 164.355 250.382 163.926 255.378C163.711 257.876 163.561 259.899 163.486 261.3C163.408 262.7 163.389 263.476 163.44 263.48C163.49 263.484 163.607 262.716 163.773 261.324C163.946 259.802 164.173 257.818 164.446 255.429C165.008 250.451 165.831 243.579 166.864 236.004C167.941 228.5 168.918 221.711 169.648 216.626C169.986 214.244 170.267 212.266 170.482 210.748C170.665 209.359 170.742 208.586 170.692 208.577Z" fill="#E3E3E2"/>
<path d="M167.159 247.448C170.445 240.206 177.482 234.747 185.383 233.308C187.395 232.941 189.872 233.013 190.978 234.712C192.085 236.416 191.112 238.681 189.896 240.31C184.833 247.088 175.348 250.292 167.144 247.996" fill="#F8F8F9"/>
<path d="M182.596 238.547C182.579 238.499 182.176 238.587 181.46 238.788C180.739 238.979 179.719 239.324 178.468 239.783C176.009 240.755 172.541 242.246 169.482 245.016C167.964 246.398 166.762 247.971 165.906 249.523C165.04 251.078 164.584 252.617 164.273 253.906C164.01 255.208 163.874 256.273 163.875 257.014C163.852 257.752 163.864 258.159 163.915 258.161C164.062 258.173 164.122 256.537 164.781 254.029C165.148 252.79 165.639 251.322 166.502 249.848C167.357 248.376 168.521 246.886 169.984 245.553C172.925 242.885 176.283 241.342 178.668 240.261C181.089 239.218 182.633 238.658 182.596 238.547Z" fill="#E3E3E2"/>
<path d="M306.215 75.446C306.215 75.446 298.75 73.27 295.729 90.2289C292.71 107.188 292.466 116.516 292.466 116.516C292.466 116.516 291.419 120.194 288.659 118.832C285.898 117.47 281.203 112.657 277.889 114.782C274.451 116.987 274.499 121.515 277.11 127.402C279.721 133.287 284.962 146.391 285.432 147.577C285.893 148.742 285.747 150.708 283.715 150.077C281.685 149.448 268.738 141.749 265.408 148.036C262.078 154.322 272.079 169.539 273.141 171.224C274.202 172.908 274.082 173.801 273.34 174.521C272.6 175.242 268.495 172.249 264.722 170.208C260.949 168.168 256.212 166.455 254.599 170.241C252.985 174.028 256.05 186.789 274.411 203.468L283.431 210.645L294.349 206.675C317.19 196.773 324.276 185.683 323.992 181.584C323.708 177.486 318.664 177.59 314.425 178.313C310.186 179.035 305.322 180.553 304.857 179.634C304.392 178.715 304.571 177.832 306.128 176.579C307.684 175.325 322.139 164.131 321.05 157.117C319.962 150.103 305.189 153.242 303.061 153.189C300.932 153.135 301.439 151.228 302.257 150.274C303.09 149.301 312.348 138.583 316.749 133.851C321.151 129.118 322.681 124.848 320.152 121.662C317.714 118.591 311.693 121.642 308.634 122.047C305.577 122.452 305.792 118.637 305.792 118.637C305.792 118.637 308.622 109.734 311.329 92.7235C314.035 75.7133 306.06 75.4122 306.06 75.4122" fill="#F8F8F9"/>
<path d="M303.484 90.6299C303.484 90.6299 303.479 90.7523 303.447 90.9887C303.412 91.2419 303.363 91.5902 303.3 92.0383C303.159 92.9768 302.955 94.3303 302.695 96.0659C302.164 99.5638 301.358 104.618 300.339 110.861C298.304 123.347 295.344 140.57 292.012 159.581C288.678 178.598 285.675 195.814 283.57 208.287C282.526 214.513 281.68 219.555 281.092 223.06C280.799 224.791 280.572 226.141 280.413 227.076C280.334 227.522 280.272 227.868 280.228 228.12C280.183 228.354 280.15 228.473 280.15 228.473C280.15 228.473 280.156 228.35 280.187 228.113C280.223 227.861 280.272 227.512 280.335 227.064C280.476 226.126 280.68 224.772 280.941 223.037C281.471 219.54 282.277 214.486 283.296 208.243C285.331 195.758 288.291 178.532 291.625 159.515C294.957 140.504 297.96 123.29 300.064 110.816C301.109 104.592 301.955 99.5483 302.544 96.0427C302.836 94.3121 303.063 92.962 303.222 92.0263C303.301 91.5803 303.363 91.2342 303.408 90.983C303.452 90.7481 303.484 90.6299 303.484 90.6299Z" fill="#E3E3E2"/>
<path d="M284.181 121.777C284.205 121.762 284.387 121.996 284.696 122.431C285.009 122.865 285.44 123.505 285.964 124.302C287.011 125.898 288.397 128.14 289.881 130.641C291.33 133.108 292.639 135.338 293.649 137.061C294.102 137.823 294.485 138.47 294.801 139.001C295.073 139.457 295.215 139.718 295.191 139.732C295.169 139.748 294.985 139.515 294.672 139.082C294.361 138.647 293.929 138.006 293.412 137.203C292.382 135.597 291.026 133.339 289.543 130.838C288.078 128.382 286.753 126.162 285.729 124.447C285.273 123.687 284.885 123.041 284.567 122.512C284.298 122.053 284.159 121.791 284.181 121.777Z" fill="#E3E3E2"/>
<path d="M296.269 139.619C296.21 139.53 300.761 136.499 306.431 132.852C312.105 129.203 316.749 126.319 316.808 126.409C316.868 126.498 312.318 129.528 306.646 133.177C300.975 136.824 296.329 139.709 296.269 139.619Z" fill="#E3E3E2"/>
<path d="M289.818 168.591C289.811 168.564 290.098 168.462 290.622 168.3C291.227 168.117 291.97 167.894 292.845 167.63C294.721 167.064 297.309 166.273 300.134 165.298C302.962 164.329 305.489 163.367 307.315 162.657C308.166 162.327 308.889 162.047 309.479 161.819C309.992 161.624 310.281 161.528 310.292 161.553C310.302 161.578 310.034 161.72 309.54 161.958C309.045 162.195 308.322 162.524 307.421 162.909C305.62 163.686 303.099 164.693 300.263 165.664C297.43 166.641 294.82 167.394 292.921 167.894C291.971 168.141 291.199 168.33 290.661 168.446C290.125 168.564 289.824 168.616 289.818 168.591Z" fill="#E3E3E2"/>
<path d="M275.288 154.829C275.307 154.81 275.529 154.98 275.916 155.305C276.303 155.631 276.853 156.11 277.529 156.709C278.878 157.907 280.724 159.582 282.747 161.449C284.769 163.317 286.586 165.023 287.888 166.272C288.538 166.896 289.059 167.407 289.414 167.766C289.769 168.125 289.956 168.333 289.937 168.353C289.919 168.372 289.697 168.202 289.31 167.876C288.923 167.551 288.372 167.071 287.697 166.473C286.348 165.274 284.502 163.599 282.478 161.732C280.456 159.865 278.64 158.158 277.339 156.91C276.689 156.285 276.167 155.775 275.812 155.416C275.457 155.056 275.27 154.848 275.288 154.829Z" fill="#E3E3E2"/>
<path d="M266.303 179.691C266.322 179.671 266.604 179.892 267.099 180.309C267.647 180.783 268.341 181.384 269.171 182.102C270.909 183.628 273.291 185.757 275.907 188.125C278.523 190.494 280.876 192.654 282.566 194.232C283.361 194.987 284.028 195.619 284.553 196.116C285.016 196.567 285.264 196.826 285.246 196.846C285.227 196.866 284.945 196.645 284.45 196.228C283.903 195.754 283.207 195.153 282.378 194.435C280.64 192.908 278.257 190.78 275.641 188.41C273.026 186.042 270.674 183.882 268.984 182.304C268.188 181.549 267.521 180.918 266.996 180.42C266.532 179.969 266.285 179.71 266.303 179.691Z" fill="#E3E3E2"/>
<path d="M284.91 196.31C284.901 196.284 285.262 196.146 285.919 195.918C286.647 195.67 287.584 195.351 288.707 194.97C291.061 194.168 294.308 193.05 297.858 191.719C301.41 190.391 304.595 189.109 306.894 188.165C307.991 187.716 308.906 187.343 309.619 187.052C310.264 186.792 310.626 186.66 310.637 186.684C310.648 186.708 310.307 186.887 309.681 187.19C309.055 187.492 308.141 187.914 307.003 188.417C304.73 189.426 301.556 190.752 297.997 192.081C294.441 193.416 291.172 194.494 288.794 195.23C287.603 195.595 286.638 195.881 285.964 196.061C285.293 196.246 284.918 196.335 284.91 196.31Z" fill="#E3E3E2"/>
<path d="M55.6936 225.703C72.1353 216.437 77.4777 196.961 78.5161 179.113C78.6906 176.133 79.3109 173.031 78.1229 170.296C76.9328 167.562 73.7613 165.479 70.9533 166.486C68.6239 167.322 67.4126 169.799 65.9668 171.809C64.0429 174.482 61.3501 176.594 58.2973 177.824C56.292 178.631 53.8674 179.018 52.0727 177.817C49.61 176.168 49.6328 172.602 49.9252 169.648C50.471 164.145 51.0161 158.643 51.5616 153.142C51.8546 150.189 52.1431 147.174 51.4732 144.287C50.8033 141.398 48.9893 138.608 46.2178 137.563C43.4454 136.519 39.7775 137.821 38.9084 140.658C38.5468 141.838 38.6789 143.11 38.4824 144.328C38.2855 145.547 37.5813 146.852 36.3706 147.086C35.1445 147.324 34.0258 146.379 33.212 145.433C30.4019 142.172 28.6642 138.139 27.0606 134.141C25.4578 130.143 23.9201 126.059 21.4215 122.553C18.9227 119.046 15.2874 116.117 11.0271 115.491C6.76578 114.863 1.96083 117.062 0.493275 121.117C-0.978453 125.183 1.08948 129.631 3.45342 133.244C6.96025 138.605 11.2477 143.453 16.1381 147.588C17.0198 148.335 17.9754 149.142 18.2342 150.269C18.7009 152.296 16.6305 154.082 14.6021 154.551C12.3047 155.082 9.90728 154.635 7.55035 154.695C5.19334 154.755 2.57289 155.542 1.48899 157.639C-0.015848 160.548 2.24683 163.943 4.57015 166.245C9.22178 170.851 14.6692 174.65 20.5989 177.426C22.725 178.42 24.9754 179.327 26.6077 181.015C28.2402 182.703 29.0648 185.453 27.7998 187.437C26.534 189.423 23.7218 189.84 21.4564 189.209C19.192 188.579 17.2437 187.156 15.1238 186.139C11.1559 184.235 5.82265 184.034 2.86473 187.304C0.921161 189.454 0.47074 192.652 1.09087 195.48C1.71016 198.308 3.26535 200.837 4.9474 203.191C10.826 211.42 18.6882 218.329 27.9194 222.457C37.1498 226.586 45.9014 228.269 55.6936 225.703Z" fill="#F8F8F9"/>
<path d="M54.7065 238.916C54.7076 231.808 53.915 223.343 52.0785 214.128C50.2602 204.909 47.4185 194.966 44.0845 184.667C43.2415 182.097 42.4085 179.556 41.5878 177.052C40.7624 174.554 39.9442 172.077 38.9922 169.703C37.1086 164.946 34.9308 160.514 32.7305 156.371C30.5312 152.226 28.2908 148.371 26.1703 144.783C24.0403 141.196 21.9916 137.891 19.994 134.957C16.0168 129.072 12.2465 124.709 9.53506 121.819C8.18242 120.368 7.09516 119.277 6.34817 118.547C5.98872 118.2 5.70662 117.928 5.49406 117.723C5.29904 117.54 5.19638 117.449 5.18971 117.456C5.18219 117.463 5.27178 117.567 5.45372 117.763C5.65654 117.977 5.9264 118.262 6.26915 118.625C6.98916 119.38 8.05023 120.493 9.37759 121.964C12.0361 124.895 15.7461 129.281 19.6705 135.176C21.6416 138.115 23.6664 141.424 25.7752 145.016C27.8777 148.612 30.0994 152.469 32.2817 156.61C34.464 160.749 36.6229 165.169 38.4888 169.903C39.4322 172.265 40.2407 174.721 41.0662 177.225C41.8863 179.728 42.7173 182.268 43.5597 184.838C46.8902 195.128 49.7393 205.042 51.5806 214.229C53.4379 223.409 54.2675 231.837 54.3159 238.919" fill="#E3E3E2"/>
<path d="M38.8369 169.668C38.8734 169.677 39.0166 169.237 39.2456 168.434C39.4788 167.631 39.7764 166.461 40.123 165.008C40.8186 162.106 41.6407 158.064 42.5304 153.605C43.4199 149.144 44.2976 145.126 45.0363 142.241C45.4015 140.799 45.7087 139.633 45.9318 138.831C46.1502 138.026 46.2542 137.576 46.2178 137.563C46.1816 137.551 46.0086 137.98 45.727 138.768C45.4405 139.552 45.0741 140.706 44.6604 142.141C43.8218 145.01 42.8796 149.032 41.9896 153.497C41.1232 157.9 40.34 161.882 39.7416 164.925C39.4629 166.298 39.2264 167.455 39.0367 168.384C38.8734 169.201 38.7994 169.658 38.8369 169.668Z" fill="#E3E3E2"/>
<path d="M1.04636 159.09C1.04163 159.127 1.58275 159.24 2.56315 159.41C3.54134 159.587 4.95881 159.833 6.69957 160.194C10.1861 160.888 14.9685 162.014 20.1899 163.483C25.4105 164.963 30.0769 166.501 33.4193 167.709C35.0963 168.301 36.4393 168.817 37.3699 169.168C38.2994 169.523 38.8207 169.702 38.8369 169.668C38.8522 169.632 38.3586 169.386 37.4522 168.969C36.545 168.557 35.2202 167.984 33.5568 167.343C30.2402 166.038 25.5766 164.436 20.3407 162.952C15.1042 161.478 10.2887 160.408 6.77245 159.81C5.01668 159.498 3.58501 159.308 2.59348 159.198C1.60166 159.093 1.05192 159.051 1.04636 159.09Z" fill="#E3E3E2"/>
<path d="M51.6707 213.386C51.6874 213.396 51.792 213.245 51.977 212.947C52.1895 212.592 52.4483 212.158 52.7619 211.633C53.4387 210.488 54.3738 208.808 55.5016 206.716C57.7598 202.532 60.6958 196.658 63.8465 190.132C66.9995 183.602 69.8758 177.709 72.0427 173.485C73.1025 171.433 73.9757 169.745 74.6238 168.49C74.9016 167.945 75.1309 167.496 75.3189 167.127C75.4721 166.812 75.5447 166.643 75.5283 166.632C75.5112 166.625 75.4065 166.775 75.2206 167.073C75.0091 167.428 74.7499 167.861 74.4365 168.387C73.7599 169.531 72.8248 171.212 71.6966 173.304C69.438 177.487 66.5026 183.363 63.3504 189.891C60.1986 196.418 57.3225 202.311 55.1558 206.535C54.0947 208.586 53.2225 210.276 52.5749 211.53C52.2967 212.074 52.0675 212.525 51.8797 212.893C51.7263 213.208 51.6535 213.378 51.6707 213.386Z" fill="#E3E3E2"/>
<path d="M2.08628 192.497C2.08016 192.515 2.24848 192.601 2.57426 192.749C2.9618 192.918 3.43699 193.124 4.0126 193.375C5.34244 193.938 7.13774 194.698 9.32168 195.621C13.8039 197.52 19.964 200.211 26.7671 203.194C33.5715 206.179 39.7634 208.817 44.2865 210.624C46.548 211.528 48.3853 212.241 49.6648 212.709C50.2566 212.92 50.7448 213.094 51.1416 213.238C51.4815 213.353 51.664 213.405 51.6707 213.386C51.6768 213.369 51.5085 213.283 51.1828 213.134C50.7963 212.966 50.3208 212.76 49.7444 212.509C48.4145 211.946 46.6201 211.187 44.4364 210.263C39.9539 208.365 33.793 205.673 26.9883 202.689C20.1852 199.705 13.9947 197.067 9.47132 195.261C7.21003 194.356 5.37277 193.643 4.09217 193.176C3.50042 192.964 3.01327 192.788 2.61544 192.646C2.27546 192.531 2.09407 192.48 2.08628 192.497Z" fill="#E3E3E2"/>
<path d="M106.258 13.4962V71.5598H21.8303L18.7883 13.9022L106.258 13.4962Z" fill="#E3E3E2"/>
<path d="M103.216 13.9022V71.4375H18.7883V13.9022H103.216Z" fill="white"/>
<path d="M19.189 71.042H102.816V14.2976H19.189V71.042ZM103.617 71.8328H18.388V13.5061H103.617V71.8328Z" fill="#E3E3E2"/>
<path d="M94.0723 21.0506V64.2891H27.9327V21.0506H94.0723Z" fill="white"/>
<path d="M94.0723 21.0506C94.0723 21.0506 93.9584 21.0576 93.7461 21.0611C93.5218 21.064 93.2106 21.0675 92.8053 21.0724C91.9677 21.078 90.7513 21.0858 89.173 21.0956C85.9965 21.1069 81.3771 21.1245 75.5433 21.1463C63.8797 21.1688 47.3707 21.2011 27.9328 21.2391L28.1239 21.0506C28.1292 34.2611 28.1351 48.899 28.1409 64.2841V64.289L27.9328 64.0836C52.8823 64.0991 75.8852 64.1138 94.0723 64.1251L93.9057 64.289C93.9427 51.1306 93.9726 40.3422 93.9933 32.8288C94.0118 29.0741 94.026 26.1405 94.0353 24.1298C94.0438 23.1358 94.0495 22.3732 94.0538 21.8434C94.0602 21.3257 94.0723 21.0506 94.0723 21.0506C94.0723 21.0506 94.0837 21.3017 94.0901 21.809C94.0944 22.3317 94.1008 23.0837 94.1087 24.0644C94.1186 26.0666 94.1329 28.9883 94.1507 32.7268C94.172 40.2649 94.202 51.0884 94.2383 64.289L94.239 64.4536H94.0723C75.8852 64.4649 52.8823 64.4797 27.9328 64.4951L27.7242 64.4958V64.289V64.2841C27.7303 48.899 27.7359 34.2611 27.7411 21.0506L27.7414 20.8606L27.9328 20.8613C47.4219 20.8993 63.9748 20.9317 75.6694 20.9542C81.4839 20.976 86.0884 20.9929 89.2556 21.0049C90.8161 21.0147 92.0204 21.0225 92.8495 21.0281C93.2455 21.033 93.5496 21.0365 93.7682 21.0393C93.9733 21.0428 94.0723 21.0506 94.0723 21.0506Z" fill="#E3E3E2"/>
<path d="M18.7883 13.7404C18.8239 13.6953 19.3762 14.0534 20.2403 14.669C21.1039 15.2853 22.2798 16.159 23.5499 17.1629C24.8199 18.1668 25.9369 19.1166 26.7231 19.8278C27.5099 20.5398 27.9695 21.0083 27.9328 21.0505C27.8541 21.1378 25.8242 19.4838 23.2889 17.4837C20.7522 15.4872 18.7143 13.8339 18.7883 13.7404Z" fill="#E3E3E2"/>
<path d="M103.216 13.9022C103.288 13.9915 101.298 15.6637 98.7736 17.6371C96.2481 19.6118 94.1435 21.1392 94.0723 21.0505C94.0003 20.9612 95.9895 19.2889 98.5151 17.3142C101.039 15.3401 103.144 13.8128 103.216 13.9022Z" fill="#E3E3E2"/>
<path d="M103.149 71.4459C100.011 68.9337 96.8735 66.4215 93.7361 63.9099L103.149 71.4459Z" fill="white"/>
<path d="M93.7361 63.9098C93.8088 63.8211 95.9746 65.4364 98.5742 67.5174C101.174 69.5991 103.221 71.3579 103.149 71.4459C103.077 71.5345 100.911 69.9192 98.3107 67.8375C95.7118 65.7565 93.6635 63.9977 93.7361 63.9098Z" fill="#E3E3E2"/>
<path d="M18.7883 71.4374C18.7171 71.348 20.6854 69.6927 23.1842 67.7404C25.684 65.7882 27.7678 64.2778 27.8393 64.3671C27.9108 64.4565 25.9427 66.1111 23.443 68.064C20.9441 70.0163 18.8601 71.5267 18.7883 71.4374Z" fill="#E3E3E2"/>
<path d="M82.978 34.5213V48.9996H41.3613V34.5213H82.978Z" fill="#E3E3E2"/>
<path d="M301.212 64.6316H256.071V0.000760688H301.212V64.6316Z" fill="#E3E3E2"/>
<path d="M298.95 64.6316H253.809V0.000760688H298.95V64.6316Z" fill="#F8F8F9"/>
<path d="M293.342 57.6317H259.417V7.00072H293.342V57.6317Z" fill="white"/>
<path d="M293.342 57.6317C293.342 57.6317 293.337 57.5459 293.335 57.384C293.334 57.2166 293.332 56.9788 293.328 56.6665C293.325 56.0298 293.321 55.0983 293.315 53.889C293.308 51.4626 293.297 47.9267 293.285 43.4594C293.271 34.5312 293.252 21.8891 293.23 7.00071L293.342 7.11187C282.978 7.11538 271.492 7.1189 259.422 7.12171H259.417L259.54 7.00071C259.531 26.101 259.521 43.7113 259.516 57.6317L259.417 57.5353C269.749 57.5564 278.217 57.574 284.11 57.5859C287.058 57.5965 289.36 57.6049 290.932 57.6106C291.714 57.6155 292.312 57.619 292.723 57.6211C293.128 57.6253 293.342 57.6317 293.342 57.6317C293.342 57.6317 293.142 57.6387 292.743 57.6422C292.337 57.645 291.745 57.6486 290.971 57.6535C289.404 57.6591 287.109 57.6669 284.171 57.6774C278.263 57.6894 269.774 57.707 259.417 57.7281L259.319 57.7288V57.6317C259.313 43.7113 259.304 26.101 259.294 7.00071V6.87971H259.417H259.422C271.492 6.88322 282.978 6.88675 293.342 6.88957H293.455L293.454 7.00071C293.432 21.9187 293.412 34.5861 293.399 43.5326C293.386 47.9887 293.376 51.5161 293.369 53.9368C293.363 55.1363 293.358 56.0607 293.355 56.6918C293.352 56.9985 293.35 57.2328 293.349 57.3974C293.347 57.555 293.342 57.6317 293.342 57.6317Z" fill="#E3E3E2"/>
<path d="M299.077 0.000868665C299.103 0.0212707 298.797 0.46309 298.273 1.15605C297.748 1.84831 297.003 2.79032 296.154 3.80901C295.304 4.8284 294.51 5.73031 293.923 6.37191C293.335 7.01282 292.955 7.39482 292.93 7.37302C292.904 7.3505 293.238 6.92839 293.792 6.26005C294.396 5.53472 295.141 4.64196 295.965 3.65493C296.788 2.66789 297.532 1.77515 298.136 1.04982C298.695 0.384296 299.049 -0.0202368 299.077 0.000868665Z" fill="#E3E3E2"/>
<path d="M293.515 57.4691C295.199 60.1151 297.188 62.5724 299.432 64.778L293.515 57.4691Z" fill="white"/>
<path d="M299.432 64.778C299.409 64.8005 299.007 64.4551 298.4 63.8515C297.794 63.2479 296.99 62.379 296.168 61.3653C295.347 60.3494 294.666 59.3842 294.203 58.6666C293.74 57.949 293.488 57.4854 293.515 57.4692C293.545 57.4502 293.849 57.8808 294.347 58.5702C294.844 59.2604 295.544 60.2045 296.36 61.2133C297.177 62.2215 297.955 63.103 298.527 63.734C299.098 64.3658 299.457 64.7534 299.432 64.778Z" fill="#E3E3E2"/>
<path d="M253.802 64.5803C255.774 62.1785 257.744 59.7767 259.715 57.3749L253.802 64.5803Z" fill="white"/>
<path d="M259.715 57.3749C259.768 57.4164 258.487 59.064 256.854 61.0535C255.221 63.0438 253.855 64.6224 253.802 64.5802C253.75 64.5387 255.031 62.8911 256.664 60.9016C258.296 58.9114 259.662 57.332 259.715 57.3749Z" fill="#E3E3E2"/>
<path d="M253.809 0.000855922C253.862 -0.040651 255.147 1.47683 256.678 3.38967C258.211 5.30321 259.409 6.8882 259.356 6.92971C259.303 6.97122 258.019 5.45375 256.487 3.54021C254.954 1.62737 253.756 0.0423629 253.809 0.000855922Z" fill="#E3E3E2"/>
<path d="M282.772 49.139H271.413V17.2812H282.772V49.139Z" fill="#E3E3E2"/>
<path d="M310.726 263.48C310.726 263.581 241.349 263.663 155.786 263.663C70.1944 263.663 0.831543 263.581 0.831543 263.48C0.831543 263.379 70.1944 263.297 155.786 263.297C241.349 263.297 310.726 263.379 310.726 263.48Z" fill="#1D2A30"/>
<path d="M223.676 141.744C224.784 145.964 223.309 150.741 220.005 153.631C217.835 155.529 215.004 156.628 213.024 158.719C210.478 161.41 209.744 165.53 210.859 169.045C211.973 172.561 214.777 175.435 218.142 177.024C222.73 179.191 228.383 179.001 232.81 176.53C238.319 173.456 241.525 167.29 242.337 161.092C243.149 154.894 241.873 148.618 240.217 142.587" fill="#1D2A30"/>
<path d="M293.11 251.03C298.811 250.109 304.152 251.828 309.792 253.062C311.311 253.395 312.902 253.685 314.41 253.306C316.855 252.69 318.593 250.339 318.972 247.876C319.299 245.742 318.736 243.509 317.531 241.709C317.02 240.946 316.384 240.246 315.579 239.795C314.754 239.331 313.798 239.153 312.854 239.063C309.421 238.736 305.931 239.49 302.807 240.935C299.683 242.379 296.911 244.494 294.473 246.904C293.28 248.083 293.638 249.447 293.11 251.03Z" fill="#1D2A30"/>
<path d="M177.565 160.199C176.657 154.857 176.77 149.347 177.897 144.047C178.446 141.467 179.25 138.899 180.712 136.693C181.244 135.89 181.901 135.111 182.802 134.756C184.049 134.265 185.531 134.718 186.514 135.619C187.798 136.796 188.329 138.614 188.273 140.344C188.219 142.073 187.645 143.743 187.006 145.354C184.8 150.913 181.329 155.526 177.565 160.199Z" fill="#1D2A30"/>
<path d="M287.976 180.532C289.275 181.44 317.928 242.362 317.928 242.362C315.628 241.385 313.079 241.137 310.631 241.65L309.078 242.059C306.297 242.793 303.659 243.981 301.276 245.574L293.11 251.03C292.451 250.662 292.017 249.998 291.946 249.253L291.924 249.02L269.726 211.385L287.976 180.532Z" fill="#0EB69A"/>
<path d="M180.508 83.5765L188.14 126.442C190.599 132.209 219.256 167.163 219.256 167.163L209.778 197.232L172.147 146.403C168.653 142.711 166.752 137.819 166.846 132.767L168.317 86.9681L180.508 83.5765Z" fill="#F9AD95"/>
<path d="M221.137 160.444L240.788 161.911L257.924 164.538C257.924 164.538 287.977 172.34 287.977 175.59C287.977 176.672 279.767 202.484 275.192 217.949C273.217 224.623 272.427 229.371 272.427 229.371L287.977 263.48H214.039V232.204C214.039 232.204 209.075 191.171 209.931 185.567C210.785 179.964 221.137 160.444 221.137 160.444Z" fill="#0EB69A"/>
<path d="M171.209 66.2576C171.323 61.8923 171.774 57.5361 172.558 53.2384C172.67 52.6292 172.921 51.8884 173.543 51.8075C174.311 51.7083 174.703 52.684 174.803 53.4431C175.484 58.6132 175.265 63.8987 174.157 68.9963" fill="#F6865E"/>
<path d="M179.948 157.023C188.379 149.578 188.665 136.682 187.944 126.423C187.891 125.666 187.834 124.84 188.273 124.218C189.077 123.084 191.036 123.504 191.821 124.652C192.605 125.799 192.562 127.292 192.488 128.675C192.921 127.502 194.774 127.509 195.643 128.415C196.512 129.32 196.659 130.668 196.76 131.912C196.854 133.058 196.948 134.204 197.042 135.35L221.671 158.538C221.671 158.538 222.348 156.456 224.158 157.645C225.967 158.834 227.135 161.425 227.135 161.425L209.778 198.849L177.563 160.135C177.563 160.135 178.575 158.235 179.948 157.023Z" fill="#0EB69A"/>
<path d="M213.374 182.918C210.88 186.203 208.8 189.849 207.721 193.815C206.642 197.78 206.609 202.09 208.088 205.928C210.171 211.337 215.344 215.464 221.137 216.337" fill="#0EB69A"/>
<path d="M293.11 251.03L292.174 263.48H310.432L314.713 241.493C309.152 241.185 303.667 242.884 299.279 246.271L293.11 251.03Z" fill="#F9AD95"/>
<path d="M188.526 154.269C188.504 154.258 188.647 153.907 188.927 153.282C189.213 152.661 189.595 151.748 190.031 150.608C190.471 149.47 190.926 148.09 191.36 146.539C191.775 144.982 192.159 143.252 192.437 141.416C192.701 139.575 192.835 137.81 192.886 136.201C192.919 134.591 192.882 133.14 192.788 131.925C192.7 130.71 192.598 129.727 192.503 129.051C192.416 128.374 192.379 127.997 192.405 127.992C192.43 127.988 192.514 128.357 192.646 129.03C192.785 129.701 192.928 130.684 193.049 131.904C193.178 133.124 193.242 134.585 193.228 136.207C193.195 137.829 193.071 139.613 192.805 141.469C192.523 143.322 192.127 145.064 191.689 146.628C191.235 148.187 190.751 149.569 190.275 150.702C189.805 151.837 189.385 152.738 189.057 153.343C188.737 153.951 188.549 154.281 188.526 154.269Z" fill="#1D2A30"/>
<path d="M193.894 147.74C193.842 147.712 194.184 147.052 194.654 145.955C195.125 144.859 195.694 143.309 196.11 141.542C196.521 139.773 196.698 138.134 196.761 136.945C196.826 135.756 196.812 135.014 196.871 135.011C196.913 135.008 197.022 135.747 197.024 136.953C197.027 138.156 196.89 139.828 196.471 141.625C196.049 143.42 195.431 144.981 194.893 146.062C194.356 147.144 193.931 147.761 193.894 147.74Z" fill="#1D2A30"/>
<path d="M222.823 167.192C222.767 167.161 223.063 166.703 223.235 165.875C223.418 165.054 223.406 163.862 223.051 162.617C222.693 161.371 222.159 160.298 221.813 159.506C221.458 158.715 221.274 158.208 221.322 158.187C221.368 158.166 221.634 158.631 222.049 159.393C222.454 160.156 223.035 161.223 223.408 162.519C223.781 163.817 223.751 165.086 223.491 165.937C223.239 166.797 222.851 167.217 222.823 167.192Z" fill="#1D2A30"/>
<path d="M218.538 216.75C218.531 216.759 218.424 216.7 218.229 216.579C218 216.43 217.721 216.248 217.385 216.028C216.66 215.541 215.613 214.827 214.375 213.867C213.143 212.904 211.711 211.686 210.378 210.09C209.053 208.5 207.862 206.474 207.285 204.144C206.689 201.821 206.642 199.51 206.877 197.463C207.109 195.409 207.601 193.608 208.094 192.132C208.594 190.657 209.093 189.499 209.453 188.708C209.635 188.313 209.781 188.009 209.886 187.805C209.991 187.602 210.052 187.498 210.063 187.502C210.088 187.513 209.906 187.959 209.585 188.763C209.267 189.57 208.807 190.737 208.344 192.212C207.886 193.686 207.426 195.474 207.216 197.498C207.004 199.517 207.061 201.783 207.644 204.053C208.209 206.33 209.356 208.301 210.643 209.876C211.938 211.456 213.337 212.683 214.54 213.665C215.749 214.645 216.77 215.39 217.469 215.913C217.789 216.155 218.054 216.354 218.272 216.519C218.453 216.66 218.545 216.739 218.538 216.75Z" fill="#1D2A30"/>
<path d="M258.887 223.709C258.89 223.721 258.781 223.759 258.572 223.821C258.362 223.876 258.056 223.98 257.648 224.058C256.839 224.244 255.645 224.429 254.156 224.472C251.205 224.58 246.955 223.906 243.073 221.485C239.193 219.057 236.757 215.552 235.59 212.872C234.993 211.525 234.649 210.38 234.473 209.579C234.37 209.182 234.334 208.864 234.295 208.651C234.261 208.438 234.249 208.326 234.262 208.324C234.293 208.317 234.392 208.759 234.613 209.543C234.83 210.328 235.209 211.448 235.829 212.765C237.042 215.383 239.469 218.795 243.271 221.175C247.077 223.548 251.237 224.253 254.153 224.213C255.622 224.203 256.809 224.06 257.62 223.918C258.432 223.779 258.879 223.679 258.887 223.709Z" fill="#1D2A30"/>
<path d="M270.219 237.382C270.12 237.356 271.063 233.467 272.324 228.698C273.586 223.925 274.687 220.079 274.787 220.104C274.886 220.13 273.944 224.018 272.682 228.79C271.421 233.56 270.319 237.408 270.219 237.382Z" fill="#1D2A30"/>
<path d="M280.186 229.124C280.097 229.175 277.235 224.551 273.792 218.798C270.348 213.042 267.629 208.337 267.716 208.285C267.804 208.234 270.667 212.856 274.111 218.612C277.554 224.365 280.273 229.072 280.186 229.124Z" fill="#1D2A30"/>
<path d="M307.495 240.516C307.502 240.585 306.459 240.671 304.834 241.076C304.02 241.273 303.071 241.582 302.046 241.989C301.029 242.414 299.939 242.95 298.857 243.617C297.782 244.296 296.824 245.039 295.999 245.765C295.186 246.505 294.498 247.219 293.969 247.86C292.902 249.137 292.374 250.03 292.315 249.995C292.293 249.981 292.41 249.751 292.643 249.343C292.869 248.932 293.25 248.365 293.765 247.698C294.274 247.028 294.953 246.283 295.767 245.516C296.594 244.764 297.564 243.999 298.659 243.307C299.761 242.627 300.876 242.091 301.919 241.676C302.968 241.278 303.941 240.992 304.773 240.824C305.604 240.651 306.285 240.555 306.758 240.529C307.231 240.497 307.493 240.49 307.495 240.516Z" fill="#1D2A30"/>
<path d="M310.982 236.28C310.977 236.354 309.836 236.219 308.01 236.373C307.097 236.442 306.02 236.627 304.849 236.921C303.684 237.24 302.431 237.683 301.18 238.293C299.935 238.918 298.824 239.645 297.869 240.376C296.929 241.126 296.136 241.868 295.532 242.55C294.315 243.902 293.741 244.887 293.678 244.846C293.656 244.833 293.79 244.584 294.054 244.142C294.182 243.919 294.348 243.652 294.571 243.362C294.79 243.069 295.022 242.72 295.334 242.38C295.921 241.667 296.709 240.891 297.655 240.113C298.616 239.354 299.744 238.603 301.013 237.965C302.288 237.343 303.573 236.9 304.763 236.594C305.961 236.311 307.061 236.152 307.991 236.115C308.454 236.072 308.875 236.097 309.244 236.099C309.614 236.096 309.93 236.124 310.187 236.157C310.703 236.212 310.985 236.254 310.982 236.28Z" fill="#1D2A30"/>
<path d="M247.293 228.961C245.009 228.961 242.726 228.18 240.952 226.756C238.79 225.022 237.466 222.489 236.278 220C234.854 217.018 233.545 213.502 234.711 210.501C234.909 211.175 235.194 211.979 235.59 212.872C236.757 215.552 239.193 219.057 243.073 221.485C245.91 223.254 248.943 224.09 251.523 224.37C252.786 224.609 254.072 224.735 255.365 224.735C255.392 224.735 255.42 224.734 255.448 224.734C253.884 226.955 251.358 228.49 248.647 228.867C248.198 228.93 247.746 228.961 247.293 228.961ZM246.76 222.89C245.594 222.452 244.417 221.89 243.271 221.175C239.878 219.052 237.58 216.107 236.263 213.636C238.636 217.708 242.403 220.98 246.76 222.89Z" fill="#0D9F87"/>
<path d="M251.522 224.37C248.943 224.09 245.909 223.254 243.073 221.485C239.193 219.057 236.757 215.552 235.59 212.872C235.194 211.979 234.909 211.175 234.711 210.501C234.723 210.471 234.735 210.441 234.747 210.412C235.155 211.532 235.664 212.609 236.263 213.636C237.58 216.107 239.878 219.052 243.271 221.175C244.417 221.89 245.594 222.452 246.76 222.89C248.287 223.558 249.886 224.06 251.522 224.37Z" fill="#161C1E"/>
<path d="M234.822 210.237C234.807 210.192 234.793 210.147 234.779 210.104L235.024 209.822C234.951 209.959 234.884 210.097 234.822 210.237Z" fill="#BC283B"/>
<path d="M234.747 210.412C234.724 210.348 234.701 210.284 234.679 210.22L234.779 210.104C234.793 210.147 234.808 210.192 234.822 210.237C234.796 210.295 234.771 210.353 234.747 210.412Z" fill="#161C1E"/>
<path d="M273.396 224.723C273.706 223.399 274.096 221.84 274.576 220.105C274.615 220.17 274.654 220.235 274.693 220.301C274.492 220.848 274.009 222.498 273.396 224.723ZM274.273 222.552C274.516 221.546 274.685 220.796 274.756 220.406C274.808 220.492 274.859 220.576 274.91 220.661C274.697 221.292 274.485 221.922 274.273 222.552Z" fill="#B2B1B0"/>
<path d="M271 230.61C270.533 230.61 270.074 230.131 270.012 229.631C269.938 229.023 270.227 228.439 270.429 227.86C271.505 224.764 270.088 221.421 268.745 218.429C267.403 215.438 266.441 211.31 267.714 208.29C267.705 208.468 270.395 213.122 273.792 218.798C274.057 219.241 274.318 219.677 274.576 220.105C274.096 221.84 273.706 223.399 273.396 224.723C273.203 225.422 272.997 226.177 272.784 226.973C272.481 227.871 272.178 228.77 271.875 229.668C271.762 230.004 271.622 230.374 271.302 230.537C271.204 230.588 271.102 230.61 271 230.61Z" fill="#0D9F87"/>
<path d="M272.783 226.973C272.997 226.177 273.203 225.422 273.396 224.723C274.009 222.498 274.492 220.848 274.693 220.301C274.714 220.336 274.736 220.371 274.756 220.406C274.685 220.796 274.516 221.546 274.273 222.552C273.776 224.026 273.279 225.5 272.783 226.973Z" fill="#161C1E"/>
<path d="M274.91 220.661C274.859 220.576 274.808 220.492 274.756 220.406C274.736 220.371 274.714 220.336 274.693 220.301C274.654 220.236 274.615 220.17 274.575 220.105C274.318 219.677 274.057 219.241 273.792 218.798C270.396 213.122 267.705 208.468 267.714 208.29C267.715 208.289 267.715 208.287 267.716 208.285L274.917 220.64C274.914 220.646 274.912 220.654 274.91 220.661Z" fill="#161C1E"/>
<path d="M200.346 168.545C200.245 168.529 200.571 166.022 201.075 162.947C201.578 159.87 202.069 157.39 202.17 157.406C202.271 157.423 201.944 159.929 201.441 163.005C200.937 166.081 200.447 168.562 200.346 168.545Z" fill="#FCFDFD"/>
<path d="M192.84 166.989C192.751 167.049 191.523 165.358 189.832 163.419C188.147 161.473 186.64 160.019 186.714 159.941C186.777 159.869 188.411 161.215 190.113 163.18C191.821 165.139 192.921 166.938 192.84 166.989Z" fill="#FCFDFD"/>
<path d="M199.279 148.87C199.319 148.9 199.017 149.386 198.476 150.136C197.934 150.886 197.148 151.894 196.227 152.965C195.305 154.036 194.425 154.965 193.763 155.615C193.103 156.264 192.665 156.637 192.63 156.603C192.553 156.529 194.114 154.862 195.945 152.728C197.779 150.599 199.192 148.807 199.279 148.87Z" fill="#FCFDFD"/>
<path d="M196.764 140.016C196.663 140.056 196.258 139.161 195.469 138.27C194.69 137.37 193.851 136.846 193.906 136.751C193.943 136.665 194.917 137.072 195.75 138.03C196.589 138.981 196.856 139.992 196.764 140.016Z" fill="#FCFDFD"/>
<path d="M190.272 145.47C190.288 145.57 189.459 145.783 188.421 145.946C187.382 146.108 186.527 146.159 186.511 146.059C186.495 145.959 187.324 145.746 188.363 145.583C189.401 145.421 190.256 145.37 190.272 145.47Z" fill="#FCFDFD"/>
<path d="M206.659 153.288C206.545 153.273 206.824 151.787 206.422 150.015C206.045 148.238 205.167 146.999 205.265 146.938C205.325 146.871 206.384 148.07 206.785 149.937C207.203 151.8 206.742 153.325 206.659 153.288Z" fill="#FCFDFD"/>
<path d="M215.414 162.587C215.311 162.641 214.565 161.151 213.123 159.729C211.694 158.293 210.192 157.544 210.247 157.444C210.272 157.359 211.901 157.982 213.386 159.471C214.882 160.948 215.501 162.563 215.414 162.587Z" fill="#FCFDFD"/>
<path d="M201.362 178.728C201.397 178.813 199.947 179.332 198.074 179.262C196.201 179.205 194.791 178.588 194.831 178.506C194.865 178.4 196.282 178.843 198.087 178.896C199.891 178.966 201.335 178.619 201.362 178.728Z" fill="#FCFDFD"/>
<path d="M207.958 182.066C207.856 182.028 208.412 180.406 208.874 178.353C209.346 176.301 209.546 174.601 209.654 174.609C209.75 174.614 209.714 176.351 209.236 178.433C208.767 180.517 208.047 182.102 207.958 182.066Z" fill="#FCFDFD"/>
<path d="M222.362 182.612C222.286 182.68 220.894 181.291 219.252 179.511C217.61 177.731 216.341 176.232 216.417 176.164C216.492 176.097 217.885 177.484 219.526 179.265C221.168 181.045 222.437 182.544 222.362 182.612Z" fill="#FCFDFD"/>
<path d="M229.077 199.051C229.004 199.121 227.964 198.176 226.756 196.939C225.547 195.704 224.626 194.645 224.7 194.574C224.774 194.505 225.813 195.449 227.022 196.685C228.231 197.922 229.151 198.981 229.077 199.051Z" fill="#FCFDFD"/>
<path d="M216.603 200.618C216.666 200.69 215.477 201.776 213.757 202.758C212.04 203.747 210.497 204.228 210.465 204.139C210.426 204.038 211.885 203.413 213.571 202.441C215.261 201.477 216.534 200.534 216.603 200.618Z" fill="#FCFDFD"/>
<path d="M222.343 216.262C222.236 216.235 222.663 214.387 222.875 212.071C223.099 209.754 223.025 207.86 223.136 207.854C223.228 207.843 223.471 209.752 223.245 212.105C223.028 214.457 222.434 216.29 222.343 216.262Z" fill="#FCFDFD"/>
<path d="M243.929 203.543C243.875 203.62 242.347 202.567 240.848 200.866C239.341 199.17 238.488 197.535 238.572 197.493C238.666 197.436 239.646 198.961 241.127 200.625C242.598 202.295 243.999 203.458 243.929 203.543Z" fill="#FCFDFD"/>
<path d="M251.817 210.183C251.732 210.116 252.811 208.654 254.019 206.777C255.235 204.902 256.121 203.32 256.217 203.367C256.305 203.409 255.559 205.08 254.332 206.974C253.111 208.87 251.892 210.244 251.817 210.183Z" fill="#FCFDFD"/>
<path d="M250.66 193.942C250.634 194.039 249.013 193.694 247.041 193.171C245.068 192.648 243.49 192.145 243.517 192.047C243.544 191.949 245.164 192.294 247.137 192.817C249.109 193.34 250.686 193.843 250.66 193.942Z" fill="#FCFDFD"/>
<path d="M244.912 222.52C244.809 222.513 244.815 221.021 244.924 219.185C245.033 217.348 245.205 215.865 245.307 215.871C245.409 215.877 245.404 217.37 245.295 219.206C245.185 221.042 245.013 222.525 244.912 222.52Z" fill="#FCFDFD"/>
<path d="M249.882 232.308C249.778 232.26 250.526 230.8 250.782 228.839C251.06 226.88 250.728 225.278 250.842 225.259C250.926 225.225 251.436 226.85 251.15 228.889C250.882 230.928 249.954 232.363 249.882 232.308Z" fill="#FCFDFD"/>
<path d="M236.998 230.146C236.908 230.159 236.684 228.507 237.079 226.509C237.462 224.509 238.289 223.055 238.368 223.102C238.471 223.147 237.814 224.633 237.443 226.578C237.058 228.52 237.111 230.141 236.998 230.146Z" fill="#FCFDFD"/>
<path d="M225.248 235.104C225.176 235.181 223.735 233.967 221.904 232.539C220.076 231.107 218.548 230 218.607 229.914C218.662 229.832 220.293 230.809 222.134 232.251C223.978 233.69 225.316 235.034 225.248 235.104Z" fill="#FCFDFD"/>
<path d="M233.208 221.303C233.256 221.392 231.386 222.466 229.031 223.7C226.676 224.934 224.729 225.863 224.681 225.774C224.633 225.684 226.502 224.611 228.858 223.377C231.211 222.142 233.16 221.214 233.208 221.303Z" fill="#FCFDFD"/>
<path d="M257.925 252.275C257.928 252.288 257.769 252.328 257.464 252.392C257.158 252.448 256.711 252.562 256.123 252.637C254.954 252.825 253.24 252.989 251.117 252.954C248.996 252.922 246.466 252.635 243.749 251.925C241.033 251.22 238.144 250.051 235.382 248.364C232.635 246.653 230.303 244.601 228.469 242.499C226.63 240.399 225.259 238.279 224.299 236.411C223.335 234.542 222.732 232.948 222.39 231.828C222.201 231.274 222.108 230.826 222.025 230.531C221.95 230.232 221.916 230.073 221.928 230.071C221.941 230.067 221.998 230.219 222.097 230.51C222.203 230.799 222.317 231.239 222.527 231.784C222.909 232.884 223.546 234.453 224.532 236.29C225.512 238.128 226.893 240.212 228.726 242.278C230.555 244.343 232.865 246.362 235.578 248.054C238.305 249.719 241.155 250.882 243.838 251.599C246.521 252.319 249.022 252.631 251.124 252.694C253.228 252.762 254.935 252.639 256.104 252.495C256.692 252.443 257.142 252.352 257.451 252.318C257.759 252.278 257.922 252.263 257.925 252.275Z" fill="#1D2A30"/>
<path d="M236.648 248.636C236.56 248.664 236.295 247.092 236.981 245.31C237.65 243.52 238.896 242.509 238.943 242.586C239.03 242.662 237.96 243.739 237.329 245.439C236.674 247.128 236.763 248.636 236.648 248.636Z" fill="#FCFDFD"/>
<path d="M230.783 246.215C230.835 246.314 229.766 246.83 228.93 247.955C228.073 249.067 227.875 250.226 227.765 250.203C227.67 250.214 227.711 248.94 228.633 247.736C229.541 246.522 230.766 246.123 230.783 246.215Z" fill="#FCFDFD"/>
<path d="M253.322 259.467C253.327 259.558 251.701 259.432 250.043 258.399C248.375 257.382 247.545 255.997 247.628 255.961C247.718 255.889 248.645 257.12 250.239 258.088C251.821 259.076 253.349 259.356 253.322 259.467Z" fill="#FCFDFD"/>
<path d="M256.83 239.979C256.923 239.977 256.717 241.445 255.554 242.784C254.405 244.134 252.971 244.573 252.959 244.482C252.906 244.381 254.194 243.819 255.272 242.547C256.368 241.29 256.721 239.945 256.83 239.979Z" fill="#FCFDFD"/>
<path d="M266.792 254.51C266.707 254.441 267.648 253.265 268.513 251.644C269.389 250.029 269.848 248.602 269.955 248.633C270.047 248.651 269.739 250.159 268.841 251.817C267.952 253.48 266.86 254.575 266.792 254.51Z" fill="#FCFDFD"/>
<path d="M279.961 256.43C280.003 256.533 278.706 257.04 277.402 258.102C276.086 259.15 275.321 260.303 275.226 260.241C275.142 260.204 275.793 258.915 277.167 257.818C278.532 256.71 279.942 256.34 279.961 256.43Z" fill="#FCFDFD"/>
<path d="M269.918 239.766C269.808 239.799 269.188 237.743 267.877 235.463C266.582 233.173 265.123 231.584 265.21 231.508C265.244 231.477 265.653 231.834 266.23 232.494C266.807 233.151 267.537 234.123 268.2 235.283C268.861 236.445 269.324 237.564 269.594 238.392C269.866 239.221 269.963 239.752 269.918 239.766Z" fill="#FCFDFD"/>
<path d="M271.889 218.816C271.912 218.915 270.399 219.344 268.512 219.774C266.622 220.205 265.072 220.474 265.05 220.375C265.027 220.277 266.539 219.848 268.428 219.417C270.316 218.986 271.866 218.718 271.889 218.816Z" fill="#FCFDFD"/>
<path d="M265.827 212.556C265.746 212.618 264.77 211.511 263.647 210.083C262.523 208.656 261.679 207.449 261.759 207.386C261.84 207.324 262.816 208.43 263.94 209.859C265.063 211.286 265.908 212.493 265.827 212.556Z" fill="#FCFDFD"/>
<path d="M280.838 208.798C280.828 208.895 279.28 208.799 277.424 208.363C275.567 207.931 274.14 207.33 274.175 207.24C274.21 207.14 275.676 207.58 277.509 208.006C279.342 208.438 280.851 208.694 280.838 208.798Z" fill="#FCFDFD"/>
<path d="M291.513 208.615C291.419 208.566 292.008 207.295 292.604 205.682C293.205 204.071 293.587 202.725 293.691 202.748C293.787 202.768 293.562 204.171 292.952 205.808C292.346 207.447 291.6 208.661 291.513 208.615Z" fill="#FCFDFD"/>
<path d="M289.112 222.907C289.088 222.998 287.608 222.63 286.007 221.683C284.4 220.744 283.367 219.635 283.436 219.571C283.511 219.491 284.631 220.455 286.197 221.368C287.755 222.291 289.148 222.804 289.112 222.907Z" fill="#FCFDFD"/>
<path d="M296.054 222.472C295.954 222.449 296.305 220.579 296.837 218.294C297.369 216.009 297.881 214.175 297.98 214.198C298.08 214.22 297.73 216.091 297.198 218.376C296.666 220.661 296.154 222.495 296.054 222.472Z" fill="#FCFDFD"/>
<path d="M290.257 238.452C290.174 238.512 289.047 237.127 287.739 235.357C286.43 233.587 285.437 232.106 285.519 232.046C285.603 231.986 286.73 233.372 288.038 235.141C289.345 236.91 290.34 238.392 290.257 238.452Z" fill="#FCFDFD"/>
<path d="M300.149 232.344C300.05 232.389 299.399 231.118 298.374 229.698C297.357 228.272 296.359 227.244 296.436 227.166C296.497 227.095 297.635 228.025 298.677 229.486C299.726 230.941 300.237 232.309 300.149 232.344Z" fill="#FCFDFD"/>
<path d="M309.42 230.969C309.328 231.024 308.396 229.644 307.14 228.025C305.887 226.402 304.783 225.152 304.861 225.08C304.93 225.012 306.168 226.161 307.434 227.803C308.706 229.44 309.504 230.92 309.42 230.969Z" fill="#FCFDFD"/>
<path d="M307.241 237.038C307.131 237.043 307.203 235.82 306.392 234.638C305.611 233.437 304.445 233.023 304.493 232.923C304.505 232.882 304.817 232.919 305.266 233.142C305.713 233.362 306.275 233.8 306.703 234.436C307.126 235.074 307.312 235.757 307.341 236.249C307.373 236.745 307.285 237.043 307.241 237.038Z" fill="#FCFDFD"/>
<path d="M300.009 245.361C299.956 245.346 299.972 245.172 299.916 244.924C299.864 244.677 299.718 244.343 299.428 244.117C299.135 243.894 298.772 243.835 298.517 243.845C298.259 243.852 298.093 243.91 298.066 243.862C298.04 243.825 298.172 243.673 298.477 243.589C298.771 243.505 299.254 243.522 299.655 243.829C300.054 244.139 300.189 244.597 300.177 244.9C300.17 245.212 300.052 245.376 300.009 245.361Z" fill="#FCFDFD"/>
<path d="M225.913 258.665C225.892 258.75 224.04 258.059 222.356 256.381C220.656 254.716 219.957 252.887 220.043 252.867C220.147 252.811 220.973 254.514 222.618 256.122C224.245 257.746 225.969 258.563 225.913 258.665Z" fill="#FCFDFD"/>
<path d="M180.577 84.0542C179.435 73.3559 177.362 63.2907 176.8 52.7958C176.772 52.2695 176.711 51.6772 176.295 51.348C175.728 50.8998 174.82 51.2593 174.449 51.8763C174.078 52.4926 174.086 53.2531 174.089 53.9699C174.112 59.5347 173.152 65.1023 171.266 70.3463C170.042 73.752 168.429 77.0296 167.505 80.5268C166.579 84.0239 168.307 85.21 169.9 88.4645" fill="#F9AD95"/>
<path d="M144.208 41.6783C144.142 41.7557 140.136 38.5364 135.263 34.4891C130.387 30.4404 126.488 27.0966 126.554 27.0192C126.62 26.9418 130.625 30.1604 135.501 34.2084C140.375 38.2564 144.274 41.6009 144.208 41.6783Z" fill="#1D2A30"/>
<path d="M164.518 36.8591C164.416 36.8641 164.013 30.6113 163.619 22.8944C163.224 15.1741 162.988 8.91429 163.09 8.90936C163.193 8.90373 163.595 15.1558 163.99 22.8755C164.384 30.5923 164.62 36.8542 164.518 36.8591Z" fill="#1D2A30"/>
<path d="M151.583 32.3898C151.485 32.4208 150.237 28.8525 148.794 24.4211C147.35 19.9883 146.26 16.3701 146.357 16.3399C146.455 16.3089 147.704 19.8757 149.146 24.3085C150.589 28.74 151.681 32.3589 151.583 32.3898Z" fill="#1D2A30"/>
<path d="M140.055 48.2736C140.012 48.3651 137.552 47.3415 134.56 45.9865C131.567 44.6309 129.176 43.4574 129.219 43.3659C129.261 43.2738 131.721 44.2974 134.714 45.6531C137.706 47.008 140.098 48.1815 140.055 48.2736Z" fill="#1D2A30"/>
<path d="M121.314 40.1924C121.302 40.293 120.709 40.3022 119.991 40.2136C119.273 40.1249 118.7 39.9723 118.713 39.871C118.726 39.7711 119.318 39.7613 120.037 39.8499C120.755 39.9392 121.327 40.0919 121.314 40.1924Z" fill="#1D2A30"/>
<path d="M146.818 11.8C146.716 11.8 146.633 11.2246 146.633 10.5154C146.633 9.80629 146.716 9.23081 146.818 9.23081C146.921 9.23081 147.004 9.80629 147.004 10.5154C147.004 11.2246 146.921 11.8 146.818 11.8Z" fill="#1D2A30"/>
<path d="M189.709 21.7336C189.785 21.8012 186.501 25.5242 182.373 30.0477C178.244 34.5735 174.837 38.186 174.761 38.1185C174.684 38.0509 177.969 34.3279 182.097 29.8029C186.225 25.2786 189.634 21.6654 189.709 21.7336Z" fill="#1D2A30"/>
<path d="M194.937 16.6178C195.009 16.6895 194.631 17.1785 194.093 17.7103C193.554 18.2422 193.059 18.6157 192.987 18.5447C192.914 18.4729 193.292 17.9833 193.83 17.4514C194.369 16.9196 194.864 16.546 194.937 16.6178Z" fill="#1D2A30"/>
<path d="M207.631 34.6283C207.643 34.6501 207.297 34.8513 206.664 35.1967C206.03 35.5429 205.102 36.0234 203.945 36.5981C201.634 37.7498 198.395 39.2546 194.745 40.7517C191.093 42.2467 187.727 43.4483 185.269 44.251C184.04 44.6534 183.041 44.9629 182.345 45.1606C181.65 45.3604 181.262 45.4596 181.254 45.4357C181.246 45.4118 181.619 45.2669 182.3 45.0248C183.043 44.7624 184.013 44.4191 185.183 44.0062C187.615 43.1422 190.96 41.9048 194.603 40.4133C198.245 38.9197 201.493 37.4557 203.83 36.3653C204.953 35.8398 205.884 35.4036 206.597 35.0694C207.252 34.7641 207.619 34.6058 207.631 34.6283Z" fill="#1D2A30"/>
<path d="M197.213 51.9446C197.226 51.991 196.509 52.2408 195.324 52.5623C194.14 52.8838 192.484 53.2651 190.637 53.5782C188.787 53.8891 187.098 54.0713 185.872 54.1564C184.647 54.2416 183.886 54.2402 183.883 54.1923C183.878 54.1389 184.632 54.0488 185.846 53.8983C187.061 53.7477 188.735 53.5261 190.574 53.2165C192.412 52.9063 194.066 52.5665 195.262 52.3104C196.458 52.055 197.199 51.8932 197.213 51.9446Z" fill="#1D2A30"/>
<path d="M206.679 50.2146C206.679 50.3159 205.761 50.3975 204.627 50.3975C203.494 50.3975 202.576 50.3159 202.576 50.2146C202.576 50.1133 203.494 50.031 204.627 50.031C205.761 50.031 206.679 50.1133 206.679 50.2146Z" fill="#1D2A30"/>
<path d="M169.9 88.4645C167.061 86.3715 165.551 82.6535 166.139 79.2035C166.498 77.093 167.556 75.1752 168.4 73.2047C169.244 71.2348 169.89 69.0511 169.376 66.973C169.179 66.178 168.814 65.4091 168.809 64.5902C168.805 63.772 169.338 62.8567 170.167 62.8195C170.791 62.7913 171.321 63.2612 171.714 63.7424C173.098 65.4386 174.215 70.3962 173.515 74.0897" fill="#F9AD95"/>
<path d="M173.515 74.0897C173.479 74.084 173.587 73.5219 173.63 72.4955C173.665 71.4712 173.619 69.9762 173.264 68.1759C173.082 67.2782 172.825 66.3018 172.412 65.3133C172.204 64.8223 171.961 64.3172 171.615 63.8831C171.273 63.4547 170.818 63.0234 170.279 62.9889C169.738 62.9481 169.268 63.4174 169.091 63.9739C168.891 64.531 169.019 65.1628 169.208 65.784C169.403 66.4038 169.636 67.0735 169.703 67.7777C169.774 68.4784 169.747 69.1967 169.625 69.9031C169.128 72.7558 167.586 75.0668 166.808 77.3483C166.405 78.4866 166.163 79.6143 166.171 80.6837C166.165 81.7509 166.339 82.7429 166.61 83.6124C167.158 85.3592 168.062 86.5897 168.75 87.3438C169.449 88.1015 169.925 88.4336 169.9 88.4645C169.893 88.4744 169.772 88.3949 169.549 88.2331C169.325 88.0748 169.012 87.8131 168.645 87.4416C167.913 86.7057 166.956 85.4739 166.361 83.6912C166.067 82.8041 165.871 81.7854 165.864 80.683C165.842 79.5778 166.082 78.4022 166.485 77.2379C167.268 74.9008 168.787 72.5933 169.258 69.844C169.376 69.163 169.401 68.4791 169.336 67.8164C169.274 67.1502 169.061 66.5318 168.86 65.886C168.67 65.2528 168.514 64.531 168.755 63.862C168.867 63.537 169.049 63.2302 169.316 62.9988C169.576 62.7617 169.946 62.6294 170.299 62.6519C171.028 62.7181 171.508 63.2323 171.872 63.684C172.246 64.1652 172.487 64.6893 172.697 65.198C173.108 66.2209 173.354 67.2142 173.521 68.1274C173.848 69.9579 173.854 71.4712 173.774 72.5039C173.728 73.0196 173.676 73.4192 173.615 73.6858C173.561 73.9539 173.527 74.0925 173.515 74.0897Z" fill="#F6865E"/>
<path d="M266.627 131.228C267.002 133.252 268.95 134.813 271.027 134.983C273.103 135.152 275.177 134.053 276.39 132.381C277.602 130.707 278.002 128.537 277.72 126.499C277.311 123.537 275.318 120.69 272.427 119.805C269.536 118.921 265.938 120.495 265.139 123.378L261.806 127.976L266.627 131.228Z" fill="#1D2A30"/>
<path d="M262.686 122.2C264.039 111.529 256.226 101.778 245.256 100.746C234.918 99.7726 225.729 107.376 224.18 117.52C222.822 126.412 221.654 135.388 221.696 138.649C221.823 148.48 227.646 152.307 230.006 153.455C230.546 153.718 232.031 154.015 232.625 154.099L232.681 154.176L230.47 165.461C229.469 172.855 233.647 179.449 241.121 180.525C248.619 181.606 254.48 175.926 255.625 168.527L262.686 122.2Z" fill="#F9AD95"/>
<path d="M225.896 123.269C226.06 123.499 227.374 122.803 229.058 123.05C230.744 123.273 231.854 124.307 232.067 124.13C232.169 124.052 232.026 123.66 231.544 123.195C231.071 122.733 230.223 122.228 229.173 122.081C228.123 121.936 227.183 122.191 226.618 122.508C226.043 122.826 225.813 123.166 225.896 123.269Z" fill="#1D2A30"/>
<path d="M240.885 126.477C241.049 126.707 242.365 126.011 244.047 126.258C245.733 126.481 246.843 127.514 247.056 127.337C247.159 127.26 247.017 126.868 246.533 126.403C246.06 125.941 245.212 125.436 244.162 125.289C243.112 125.143 242.172 125.398 241.608 125.715C241.033 126.034 240.802 126.373 240.885 126.477Z" fill="#1D2A30"/>
<path d="M235.055 134.343C235.077 134.249 234.056 133.92 232.391 133.461C231.967 133.356 231.572 133.213 231.543 132.912C231.486 132.59 231.734 132.158 232.016 131.694C232.572 130.724 233.154 129.707 233.765 128.641C236.212 124.289 238.05 120.685 237.871 120.589C237.693 120.493 235.565 123.943 233.119 128.296C232.526 129.371 231.959 130.395 231.42 131.376C231.186 131.835 230.825 132.342 230.95 133.011C231.019 133.346 231.301 133.621 231.566 133.735C231.83 133.857 232.071 133.897 232.281 133.94C233.976 134.276 235.035 134.437 235.055 134.343Z" fill="#1D2A30"/>
<path d="M232.694 154.109C232.694 154.109 239.121 155.574 247.97 151.914C247.97 151.914 244.149 160.038 232.098 157.15L232.694 154.109Z" fill="#F6865E"/>
<path d="M235.176 138.457C235.898 137.753 237.024 137.47 238.062 137.734C238.78 137.917 239.468 138.372 239.825 139.024C240.183 139.676 240.153 140.524 239.667 141.027C239.118 141.593 238.147 141.601 237.376 141.26C236.606 140.919 235.99 140.296 235.411 139.681C235.25 139.511 235.087 139.333 235.002 139.119C234.918 138.906 234.931 138.644 235.096 138.5" fill="#F6865E"/>
<path d="M239.843 136.208C239.571 136.153 239.302 137.959 237.547 139.016C235.795 140.076 233.875 139.593 233.823 139.843C233.782 139.954 234.206 140.257 235.025 140.397C235.829 140.54 237.045 140.455 238.119 139.808C239.19 139.159 239.755 138.17 239.926 137.437C240.108 136.692 239.97 136.215 239.843 136.208Z" fill="#1D2A30"/>
<path d="M242.044 121.062C242.144 121.539 243.858 121.566 245.8 122.087C247.752 122.568 249.261 123.369 249.583 123.001C249.729 122.823 249.515 122.358 248.934 121.826C248.361 121.297 247.402 120.735 246.235 120.433C245.068 120.135 243.954 120.165 243.191 120.35C242.423 120.534 242.005 120.837 242.044 121.062Z" fill="#1D2A30"/>
<path d="M227.597 118.139C227.838 118.56 229.056 118.335 230.455 118.517C231.86 118.651 232.994 119.142 233.325 118.787C233.472 118.611 233.342 118.206 232.879 117.774C232.423 117.344 231.615 116.93 230.651 116.82C229.688 116.713 228.806 116.936 228.264 117.252C227.713 117.57 227.494 117.936 227.597 118.139Z" fill="#1D2A30"/>
<path d="M222.226 115.317C224.286 118.422 230.823 116.504 234.771 114.371C238.928 117.093 244.707 115.911 247.587 111.75C249.845 114.591 254.433 113.652 256.106 110.45C257.778 107.247 256.836 102.841 254.539 100.039C252.242 97.2373 248.88 95.8232 245.561 95.2175C237.693 93.7817 229.122 96.7948 224.413 103.824C222.242 107.066 220.938 111.433 222.226 115.317Z" fill="#1D2A30"/>
<path d="M243.978 96.3269C243.97 96.4634 242.118 96.1124 239.203 96.5922C236.342 97.0656 232.313 98.5402 229.313 101.847C226.381 105.203 225.049 109.179 224.563 112.017C224.072 114.899 224.446 116.719 224.319 116.731C224.282 116.737 224.159 116.294 224.05 115.469C223.953 114.643 223.92 113.431 224.108 111.951C224.494 109.022 225.774 104.92 228.827 101.422C231.969 97.9598 236.18 96.5141 239.134 96.1426C240.634 95.9492 241.863 95.9907 242.696 96.0842C243.533 96.1729 243.984 96.2925 243.978 96.3269Z" fill="#365462"/>
<path d="M233.338 110.776C233.301 110.781 233.216 110.39 233.181 109.67C233.142 108.951 233.202 107.898 233.501 106.635C234.06 104.144 235.89 100.699 239.414 98.6289C242.957 96.5873 246.893 96.6773 249.372 97.4026C250.634 97.7565 251.596 98.2145 252.213 98.5965C252.833 98.9764 253.139 99.2388 253.117 99.2691C253.052 99.3851 251.737 98.4178 249.258 97.8423C246.834 97.2521 243.09 97.2528 239.744 99.1825C236.414 101.137 234.598 104.371 233.946 106.751C233.253 109.172 233.472 110.778 233.338 110.776Z" fill="#365462"/>
<path d="M252.22 107.409C251.56 110.179 250.895 112.979 250.894 115.825C250.891 118.672 251.614 121.611 253.454 123.803C256.203 127.078 260.788 128.071 265.02 128.868C267.287 123.321 267.977 117.156 266.993 111.255C266.511 108.373 265.572 105.44 263.515 103.343C260.546 100.316 255.374 99.7066 251.767 101.958" fill="#1D2A30"/>
<path d="M254.573 121.031C253.457 123.407 253.541 126.16 253.926 128.753C254.312 131.346 254.978 133.918 254.952 136.538C254.926 139.159 254.083 141.932 252.003 143.559C251.411 144.021 250.73 144.384 250.234 144.947C249.738 145.509 249.471 146.368 249.867 147.001C250.263 147.635 251.463 147.622 251.638 146.897L251.53 147.08C251.075 147.85 251.627 148.852 252.529 148.836C253.94 148.81 255.384 148.073 256.329 146.992C257.69 145.436 258.23 143.35 258.588 141.325C259.684 135.113 259.47 128.675 261.207 122.607" fill="#1D2A30"/>
<path d="M230.422 161.824C231.397 166.043 234.3 169.786 238.168 171.816C242.035 173.846 246.8 174.127 250.885 172.566C254.571 171.157 257.546 168.414 260.421 165.734C261.444 171.816 259.738 178.294 255.846 183.113C251.955 187.933 245.94 191.017 239.711 191.385C234.993 191.664 229.919 190.241 226.952 186.607C224.882 184.07 224.042 180.715 224.076 177.457C224.109 174.199 224.95 171.003 225.938 167.894C226.784 165.235 228.111 162.252 230.835 161.525" fill="#0EB69A"/>
<path d="M264.21 129.093C267.03 130.608 268.579 133.77 269.128 136.894C269.675 140.018 269.401 143.22 269.534 146.388C269.668 149.557 270.284 152.865 272.31 155.324C274.462 157.936 277.83 159.174 280.831 160.772C287.472 164.309 292.93 170.295 294.93 177.48C296.931 184.664 295.117 192.974 289.668 198.127C284.71 202.817 277.491 204.467 270.626 204.447C265.729 204.434 260.353 203.407 257.299 199.625C254.282 195.89 254.418 190.55 255.521 185.898C256.623 181.246 258.546 176.714 258.622 171.937C257.896 174.887 256.614 177.701 254.862 180.195C254.36 180.907 253.498 181.675 252.724 181.267C251.864 180.814 252.191 179.542 252.59 178.664C258.491 165.697 256.436 139.563 259.933 125.247" fill="#1D2A30"/>
<path d="M259.351 127.613C259.528 127.556 266.412 126.268 265.528 132.993C264.644 139.718 257.992 137.454 258.005 137.259C258.019 137.066 259.351 127.613 259.351 127.613Z" fill="#F9AD95"/>
<path d="M260.419 134.979C260.452 134.961 260.528 135.076 260.716 135.192C260.899 135.306 261.228 135.411 261.6 135.324C262.354 135.156 263.108 134.106 263.3 132.898C263.398 132.288 263.345 131.688 263.189 131.177C263.045 130.659 262.768 130.274 262.414 130.164C262.065 130.036 261.781 130.217 261.672 130.395C261.556 130.572 261.582 130.712 261.544 130.719C261.523 130.733 261.413 130.587 261.505 130.316C261.55 130.186 261.651 130.038 261.828 129.929C262.008 129.819 262.257 129.783 262.506 129.842C263.026 129.945 263.436 130.483 263.608 131.044C263.808 131.611 263.883 132.286 263.773 132.971C263.551 134.321 262.682 135.498 261.661 135.653C261.166 135.715 260.785 135.522 260.6 135.336C260.411 135.143 260.395 134.988 260.419 134.979Z" fill="#F6865E"/>
<path d="M223.38 176.323C223.334 176.295 223.797 175.511 224.538 174.244C225.268 172.977 226.288 171.216 226.996 169.115C227.701 167.014 227.821 164.976 227.61 163.548C227.413 162.111 226.997 161.286 227.064 161.26C227.085 161.251 227.206 161.446 227.373 161.825C227.542 162.204 227.734 162.777 227.869 163.508C228.154 164.965 228.072 167.076 227.348 169.229C226.623 171.379 225.552 173.14 224.763 174.378C224.364 174.998 224.027 175.489 223.786 175.824C223.546 176.158 223.402 176.337 223.38 176.323Z" fill="#1D2A30"/>
<path d="M226.854 168.559C226.752 168.583 226.558 167.986 225.949 167.581C225.353 167.156 224.718 167.183 224.706 167.08C224.699 167.035 224.857 166.955 225.137 166.951C225.415 166.944 225.808 167.038 226.161 167.28C226.514 167.524 226.738 167.856 226.827 168.115C226.92 168.376 226.9 168.55 226.854 168.559Z" fill="#FCFDFD"/>
<path d="M231.251 168.549C231.154 168.606 230.614 167.637 229.498 166.925C228.395 166.193 227.281 166.085 227.295 165.976C227.277 165.882 228.5 165.827 229.702 166.619C230.914 167.397 231.345 168.53 231.251 168.549Z" fill="#FCFDFD"/>
<path d="M234.019 182.823C233.919 182.802 234.103 181.516 234.43 179.95C234.758 178.384 235.105 177.131 235.205 177.152C235.305 177.172 235.122 178.458 234.794 180.025C234.466 181.59 234.119 182.843 234.019 182.823Z" fill="#FCFDFD"/>
<path d="M245.13 184.976C245.028 184.973 244.987 183.612 245.04 181.939C245.093 180.264 245.219 178.911 245.321 178.913C245.424 178.916 245.464 180.276 245.411 181.951C245.358 183.624 245.232 184.979 245.13 184.976Z" fill="#FCFDFD"/>
<path d="M18.277 216.235L7.29584 263.48L30.5216 263.55L41.2518 222.005L18.277 216.235Z" fill="#C67C6C"/>
<path d="M132.336 158.201C130.129 155.276 127.593 152.469 126.428 149.007C125.866 147.335 125.646 145.562 125.047 143.902C124.449 142.242 123.361 140.625 121.693 139.998C120.026 139.372 118.761 140.007 117.675 141.178L109.705 164.204L114.301 181.893C118.884 180.871 124.63 179.663 128.914 177.755C133.196 175.848 136.067 172.796 136.334 168.162C136.544 164.52 134.544 161.125 132.336 158.201Z" fill="#1D2A30"/>
<path d="M59.8077 154.129C59.8077 154.129 32.1009 166.043 28.6385 171.418C25.1762 176.792 13.8006 215.111 13.8006 215.111L42.9691 223.589L42.4886 263.48H114.068L113.477 193.149L104.497 154.271C104.497 154.271 88.6929 153.266 87.23 152.554C85.7678 151.841 59.8077 154.129 59.8077 154.129Z" fill="#FF6B7D"/>
<path d="M158.264 56.6123C158.492 54.9985 157.349 53.2263 158.17 51.8123C158.623 51.0314 159.538 50.6543 160.389 50.3307C160.828 50.1633 161.282 49.9937 161.752 50.0085C162.222 50.024 162.718 50.273 162.872 50.712C163.054 51.227 162.718 51.7792 162.327 52.1633C161.937 52.5489 161.461 52.8845 161.252 53.3889C160.972 54.0635 161.228 56.1797 161.512 56.853C162 58.0081 163.718 63.1388 163.868 64.3812" fill="#C67C6C"/>
<path d="M152.417 57.1696C152.519 54.727 154.523 45.1065 154.625 42.6646C156.296 43.1739 157.266 44.9327 157.581 46.6324C157.896 48.3321 157.733 50.0895 158.031 51.792C158.43 54.0784 159.633 56.1396 160.847 58.1264C162.06 60.1131 163.323 62.1244 163.868 64.3813C164.412 66.6382 166.482 72.4836 164.872 74.1735" fill="#C67C6C"/>
<path d="M151.952 73.631L142.049 120.12C141.7 122.22 104.497 154.271 104.497 154.271L111.845 183.264L160.313 136.458C163.807 132.766 165.708 127.874 165.614 122.821L164.792 79.2007L151.952 73.631Z" fill="#C67C6C"/>
<path d="M150.261 57.4629L151.952 73.631L164.792 79.2007C164.792 79.2007 164.948 78.0519 165.5 72.4505C166.109 66.2688 159.382 63.6158 156.386 59.055C155.104 57.1027 155.44 53.5134 154.449 49.0672C154.335 48.5551 153.619 45.4491 153.235 43.7796C153.022 42.8559 152.492 42.0223 151.696 41.4946C151.118 41.1105 150.461 40.9192 149.979 41.4918C149.489 42.075 150.261 57.4629 150.261 57.4629Z" fill="#C67C6C"/>
<path d="M158.264 76.3445C159.723 75.1267 160.035 72.9451 159.495 71.1357C158.955 69.3263 157.721 67.8074 156.469 66.3828C155.218 64.9568 153.898 63.5392 153.129 61.8128C152.586 60.5971 152.334 59.2661 151.737 58.0757C151.139 56.8861 150.05 55.7963 148.706 55.7436C149.78 62.4326 149.754 66.2829 151.952 73.631" fill="#C67C6C"/>
<path d="M150.014 63.359C150.018 63.3843 149.963 63.1754 149.882 62.8229C149.786 62.3952 149.672 61.8873 149.538 61.2907C149.238 59.8921 148.85 58.0848 148.409 56.027L148.367 55.8308L148.574 55.8146C149.419 55.7491 150.299 56.1185 150.968 56.6989C152.089 57.6416 152.6 58.9656 152.973 60.0863C153.345 61.2267 153.665 62.2411 154.099 63.022C154.495 63.8261 155.04 64.3137 155.352 64.7288C155.663 65.1354 155.797 65.3837 155.779 65.3964C155.755 65.4126 155.581 65.1917 155.241 64.8202C154.915 64.4544 154.311 63.9654 153.87 63.1473C153.392 62.3579 153.035 61.3174 152.649 60.1953C152.26 59.0831 151.762 57.8463 150.725 56.9768C150.105 56.4407 149.332 56.1192 148.596 56.1691L148.761 55.9567C149.61 60.1939 150.169 63.3654 150.014 63.359Z" fill="#864338"/>
<path d="M155.771 59.2456C155.67 59.2603 155.14 56.3049 154.589 52.6445C154.037 48.9835 153.673 46.0041 153.774 45.9893C153.875 45.9745 154.404 48.9293 154.956 52.5903C155.507 56.2507 155.872 59.2308 155.771 59.2456Z" fill="#864338"/>
<path d="M159.855 59.788C159.874 59.7852 159.905 59.8647 159.949 60.0364L159.838 60.0596C159.598 59.4771 159.038 57.6543 158.546 55.46C158.239 54.1029 158.015 52.8633 157.882 51.9614C157.749 51.0595 157.703 50.4967 157.753 50.4883C157.858 50.4714 158.296 52.6769 158.908 55.3798C159.398 57.5649 159.851 59.4081 159.947 60.0293L159.837 60.0525C159.829 59.876 159.835 59.7908 159.855 59.788Z" fill="#864338"/>
<path d="M162.38 68.7022C162.327 68.7339 162.069 68.3378 161.553 67.7954C161.04 67.2515 160.233 66.5867 159.203 66.0921C158.169 65.6024 157.14 65.3928 156.39 65.3344C155.64 65.2732 155.165 65.3196 155.157 65.2598C155.15 65.2204 155.617 65.0804 156.402 65.0762C157.182 65.0685 158.278 65.2472 159.364 65.7621C160.447 66.2813 161.271 67.0172 161.751 67.6251C162.236 68.2351 162.416 68.6839 162.38 68.7022Z" fill="#864338"/>
<path d="M153.114 74.9072C153.07 74.9241 152.726 74.2016 152.271 72.9936C151.814 71.7864 151.263 70.0874 150.798 68.1732C150.335 66.2582 150.049 64.4959 149.903 63.2156C149.755 61.9345 149.731 61.1367 149.778 61.1325C149.833 61.1268 149.95 61.9141 150.163 63.179C150.374 64.4446 150.699 66.1865 151.159 68.0881C151.62 69.9882 152.128 71.6865 152.519 72.9099C152.908 74.1326 153.165 74.8875 153.114 74.9072Z" fill="#864338"/>
<path d="M95.8065 155.095C96.9995 153.134 99.9238 152.459 101.872 153.694C107.101 149.495 112.447 145.377 117.675 141.178C115.969 149.596 114.845 161.395 118.65 169.114C118.65 169.114 123.47 177.968 131.148 176.613L124.303 183.264L113.477 193.149" fill="#FF6B7D"/>
<path d="M94.1072 159.048C94.016 159.054 94.1129 157.484 95.1149 155.874C96.1014 154.253 97.4674 153.446 97.5051 153.528C97.5778 153.616 96.3692 154.519 95.4319 156.064C94.4747 157.597 94.2197 159.072 94.1072 159.048Z" fill="#1D2A30"/>
<path d="M99.7536 164.221C99.7194 164.237 99.4082 163.678 99.1589 162.683C98.9061 161.694 98.775 160.254 99.0499 158.707C99.3305 157.16 99.9544 155.852 100.536 155.008C101.117 154.159 101.603 153.74 101.63 153.766C101.678 153.808 101.266 154.285 100.759 155.145C100.249 156.003 99.6867 157.277 99.4153 158.771C99.1504 160.265 99.2344 161.651 99.4153 162.63C99.5934 163.611 99.8141 164.198 99.7536 164.221Z" fill="#1D2A30"/>
<path d="M125.925 182.325C125.925 182.325 125.376 182.703 124.22 183.001C123.079 183.306 121.292 183.446 119.231 182.852C117.171 182.282 114.951 180.817 113.233 178.604C111.487 176.403 110.304 173.492 109.656 170.366C108.43 164.081 108.479 158.26 108.802 154.106C108.968 152.024 109.204 150.35 109.397 149.199C109.49 148.623 109.579 148.179 109.641 147.877C109.703 147.576 109.742 147.42 109.755 147.422C109.767 147.424 109.754 147.585 109.715 147.89C109.671 148.231 109.612 148.672 109.54 149.219C109.391 150.374 109.195 152.048 109.064 154.123C108.808 158.263 108.804 164.064 110.018 170.291C110.66 173.382 111.812 176.235 113.504 178.399C115.17 180.574 117.31 182.017 119.308 182.604C121.307 183.214 123.055 183.12 124.188 182.862C125.333 182.613 125.908 182.283 125.925 182.325Z" fill="#FCFDFD"/>
<path d="M43.1232 235.427C43.0206 235.427 42.938 225.427 42.938 213.094C42.938 200.756 43.0206 190.758 43.1232 190.758C43.2257 190.758 43.3086 200.756 43.3086 213.094C43.3086 225.427 43.2257 235.427 43.1232 235.427Z" fill="#1D2A30"/>
<path d="M42.5485 183.042C42.472 183.044 42.494 182.042 42.1448 180.487C41.9787 179.708 41.6775 178.805 41.2563 177.842C40.8116 176.889 40.2338 175.882 39.4963 174.913C38.7446 173.955 37.9127 173.138 37.099 172.464C36.2696 171.809 35.4672 171.284 34.7509 170.92C33.3243 170.177 32.3393 169.935 32.3616 169.862C32.368 169.837 32.6143 169.89 33.0574 170.006C33.2805 170.059 33.5501 170.136 33.8509 170.261C34.1533 170.381 34.5083 170.495 34.8697 170.689C35.6158 171.03 36.4519 171.544 37.3137 172.201C38.1589 172.877 39.0203 173.708 39.7912 174.69C40.5474 175.684 41.1321 176.723 41.5692 177.708C41.9837 178.702 42.2653 179.633 42.4017 180.434C42.496 180.83 42.5143 181.198 42.5516 181.518C42.5933 181.837 42.5975 182.114 42.5914 182.341C42.588 182.794 42.5742 183.042 42.5485 183.042Z" fill="#1D2A30"/>
<path d="M91.3338 153.826C91.3466 153.824 91.3865 154.027 91.452 154.418C91.5311 154.808 91.5895 155.389 91.6365 156.141C91.7163 157.642 91.5774 159.858 90.7469 162.439C89.8937 164.991 88.2926 167.923 85.5862 170.333C82.9126 172.763 79.068 174.425 74.8916 174.747C70.7116 175.044 66.6578 173.966 63.6476 171.957C60.6071 169.973 58.5814 167.308 57.3523 164.91C56.1415 162.48 55.6705 160.31 55.523 158.814C55.4557 158.064 55.4257 157.48 55.4454 157.084C55.4507 156.688 55.4599 156.481 55.4727 156.481C55.4852 156.481 55.5016 156.689 55.5203 157.082C55.5245 157.478 55.5776 158.056 55.6663 158.798C55.8567 160.275 56.3621 162.411 57.586 164.793C58.8276 167.144 60.8441 169.745 63.8345 171.674C66.7933 173.628 70.7636 174.672 74.8638 174.382C78.9605 174.065 82.7281 172.448 85.3583 170.081C88.0241 167.733 89.6252 164.864 90.4984 162.356C91.3488 159.822 91.5268 157.635 91.4919 156.146C91.4677 155.399 91.4335 154.818 91.378 154.428C91.3367 154.035 91.321 153.828 91.3338 153.826Z" fill="#1D2A30"/>
<path d="M42.5082 214.859C42.4762 214.955 36.5937 213.121 29.3711 210.764C22.146 208.406 16.3172 206.417 16.3493 206.321C16.3815 206.225 22.2623 208.058 29.4877 210.416C36.71 212.773 42.5404 214.762 42.5082 214.859Z" fill="#FCFDFD"/>
<path d="M112.785 205.096C112.785 205.197 97.0779 205.345 77.7056 205.425C58.3263 205.505 42.6214 205.488 42.6212 205.387C42.6209 205.286 58.3249 205.139 77.7042 205.058C97.0757 204.978 112.784 204.995 112.785 205.096Z" fill="#FCFDFD"/>
<path d="M113.14 211.22C113.14 211.321 97.3527 211.403 77.8829 211.403C58.4062 211.403 42.6222 211.321 42.6222 211.22C42.6222 211.119 58.4062 211.037 77.8829 211.037C97.3527 211.037 113.14 211.119 113.14 211.22Z" fill="#FCFDFD"/>
<path d="M103.469 218.665C103.481 218.67 103.412 218.865 103.27 219.234C103.112 219.631 102.899 220.166 102.631 220.838C102.489 221.189 102.332 221.576 102.161 221.996C101.978 222.414 101.755 222.858 101.528 223.34C101.06 224.298 100.573 225.413 99.8968 226.576C99.5713 227.165 99.2316 227.782 98.8769 228.423C98.5179 229.064 98.0906 229.698 97.6775 230.372C96.8684 231.732 95.8671 233.097 94.8422 234.552C92.707 237.401 90.1658 240.396 87.2208 243.275C84.2458 246.129 81.1648 248.581 78.239 250.634C76.7462 251.618 75.3453 252.58 73.9522 253.352C73.2621 253.747 72.6111 254.157 71.9566 254.499C71.2999 254.836 70.6696 255.16 70.067 255.47C68.8768 256.115 67.7381 256.573 66.7597 257.017C66.2664 257.232 65.8134 257.444 65.3861 257.616C64.9574 257.776 64.5638 257.924 64.206 258.058C63.5199 258.309 62.9746 258.509 62.5696 258.657C62.1942 258.79 61.995 258.854 61.9906 258.843C61.9861 258.831 62.1767 258.743 62.5434 258.588C62.9415 258.424 63.4776 258.203 64.152 257.926C64.5053 257.783 64.8942 257.626 65.3172 257.456C65.7389 257.274 66.1871 257.054 66.6745 256.831C67.6418 256.37 68.7686 255.897 69.9466 255.24C70.5433 254.924 71.1673 254.595 71.8177 254.252C72.4658 253.905 73.1096 253.49 73.7941 253.092C75.1744 252.311 76.5625 251.344 78.0424 250.358C80.9433 248.299 84.0016 245.853 86.9608 243.014C89.8909 240.148 92.4263 237.177 94.5666 234.352C95.5943 232.909 96.6006 231.558 97.4168 230.21C97.8335 229.542 98.2658 228.915 98.6297 228.281C98.9894 227.646 99.3355 227.036 99.666 226.453C100.355 225.303 100.856 224.199 101.34 223.253C101.576 222.776 101.808 222.338 102 221.925C102.181 221.51 102.347 221.129 102.498 220.783C102.793 220.122 103.027 219.597 103.201 219.207C103.365 218.847 103.457 218.661 103.469 218.665Z" fill="#1D2A30"/>
<path d="M71.572 254.381C71.6532 254.338 71.7351 254.295 71.8177 254.252C72.4658 253.905 73.1096 253.49 73.7941 253.092C75.1743 252.312 76.5625 251.344 78.0424 250.358C80.9433 248.299 84.0015 245.853 86.9608 243.014C89.8908 240.148 92.4263 237.177 94.5665 234.352C95.5943 232.909 96.6006 231.558 97.4168 230.21C97.8335 229.542 98.2658 228.915 98.6297 228.281C98.9894 227.646 99.3355 227.037 99.666 226.453C99.7166 226.37 99.7657 226.286 99.8141 226.202C98.0322 229.469 96.0551 232.738 93.8408 235.859C91.9256 238.308 89.7185 240.833 87.2208 243.276C84.2458 246.129 81.1648 248.582 78.239 250.634C76.7462 251.618 75.3453 252.58 73.9522 253.352C73.8432 253.415 73.735 253.477 73.6281 253.54C72.9551 253.838 72.2685 254.12 71.572 254.381Z" fill="#161C1E"/>
<path d="M50.7729 99.5877C47.7677 101.918 47.5649 106.272 47.7151 110.043C47.8648 113.815 47.9093 118.104 45.1428 120.708C42.8626 122.853 38.8747 123.651 38.2187 126.693C37.9124 128.113 38.5971 129.688 39.8501 130.446C41.1029 131.205 42.8348 131.092 43.9763 130.179C43.0101 132.56 43.4485 135.618 45.5042 137.185C47.5596 138.753 51.163 138.02 51.9439 135.575C51.4626 137.196 52.5894 139.101 54.2553 139.483C55.9212 139.865 57.7821 138.644 58.0729 136.98" fill="#1D2A30"/>
<path d="M94.3892 126.894C95.016 128.8 97.3827 129.941 99.2893 129.258C101.197 128.576 102.273 126.202 101.518 124.342C100.926 122.883 99.4132 121.779 99.3406 120.208C99.2522 118.307 101.271 117.051 103.045 116.309C104.82 115.567 106.9 114.591 107.181 112.707C107.451 110.89 105.867 109.39 104.54 108.102C103.214 106.813 101.942 104.859 102.876 103.27C103.354 102.457 104.287 102.021 104.911 101.311C106.292 99.7397 105.738 97.1057 104.144 95.7459C102.55 94.3853 100.261 94.0968 98.1725 94.3663C96.0836 94.635 94.0944 95.3899 92.0489 95.8866C85.3021 97.5236 77.8758 96.2003 72.1339 92.3374" fill="#1D2A30"/>
<path d="M52.8117 114.094L60.1439 156.052C61.4336 163.432 68.5563 168.365 76.0198 167.047C82.9931 165.816 87.859 159.523 87.2301 152.554C86.8953 148.834 86.6069 145.753 86.6069 145.753C86.6069 145.753 97.2481 143.053 96.3279 132.37C95.8835 127.208 94.0923 116.647 92.3587 107.112C90.4977 96.8729 80.9761 89.7681 70.4932 90.7777L69.4511 90.8776C58.2762 92.6082 50.7512 103.107 52.8117 114.094Z" fill="#C67C6C"/>
<path d="M90.0874 114.033C90.1964 114.835 89.5974 115.587 88.752 115.714C87.908 115.841 87.1346 115.296 87.0263 114.494C86.9181 113.692 87.5163 112.939 88.3603 112.811C89.2057 112.685 89.9799 113.231 90.0874 114.033Z" fill="#1D2A30"/>
<path d="M90.5546 112.573C90.3837 112.79 89.1302 112.048 87.4707 112.212C85.8106 112.353 84.6753 113.314 84.4759 113.13C84.3783 113.05 84.5378 112.672 85.0307 112.24C85.515 111.81 86.3697 111.355 87.4038 111.259C88.4386 111.165 89.3453 111.457 89.883 111.794C90.4321 112.132 90.6401 112.475 90.5546 112.573Z" fill="#1D2A30"/>
<path d="M73.8461 115.906C73.9543 116.708 73.3561 117.46 72.5107 117.587C71.6667 117.714 70.893 117.168 70.7847 116.366C70.6768 115.564 71.275 114.812 72.1189 114.685C72.9643 114.558 73.7378 115.105 73.8461 115.906Z" fill="#1D2A30"/>
<path d="M74.2677 114.45C74.0961 114.667 72.8411 113.925 71.1832 114.089C69.5233 114.23 68.3877 115.191 68.1879 115.007C68.0908 114.927 68.2483 114.55 68.7432 114.117C69.2279 113.687 70.0817 113.232 71.1164 113.136C72.151 113.042 73.0577 113.334 73.5961 113.671C74.1431 114.009 74.3525 114.352 74.2677 114.45Z" fill="#1D2A30"/>
<path d="M81.4924 126.031C81.4753 125.938 82.4902 125.663 84.1411 125.29C84.5606 125.206 84.9538 125.084 84.9972 124.792C85.067 124.479 84.8448 124.045 84.5913 123.577C84.0927 122.603 83.5714 121.581 83.0237 120.51C80.8343 116.138 79.2062 112.527 79.3849 112.442C79.5637 112.356 81.4831 115.83 83.6725 120.202C84.2017 121.281 84.7074 122.309 85.1895 123.294C85.3968 123.754 85.7258 124.268 85.5713 124.916C85.4879 125.24 85.1995 125.497 84.9353 125.595C84.6717 125.703 84.4331 125.731 84.2252 125.763C82.5508 126.015 81.5081 126.123 81.4924 126.031Z" fill="#1D2A30"/>
<path d="M74.0626 107.983C73.9422 108.444 72.2642 108.392 70.3396 108.811C68.4064 109.193 66.8915 109.908 66.5933 109.533C66.4594 109.352 66.6915 108.906 67.2843 108.414C67.8711 107.922 68.835 107.416 69.9913 107.174C71.1481 106.936 72.2372 107.016 72.9743 107.233C73.7172 107.448 74.1117 107.764 74.0626 107.983Z" fill="#1D2A30"/>
<path d="M89.4764 107.886C89.2214 108.287 88.0398 108.01 86.6624 108.124C85.2814 108.191 84.1476 108.619 83.8413 108.255C83.7053 108.078 83.8513 107.687 84.3256 107.285C84.7921 106.886 85.6026 106.518 86.5499 106.455C87.4978 106.394 88.3504 106.652 88.866 106.988C89.3902 107.324 89.5875 107.692 89.4764 107.886Z" fill="#1D2A30"/>
<path d="M63.3852 101.264L63.3307 101.316C61.7429 102.823 60.7976 104.875 60.7074 107.048C60.7044 107.124 60.7016 107.197 60.6988 107.267C60.5767 110.35 60.9586 113.439 60.8062 116.522C60.6537 119.605 59.8926 122.799 57.8246 125.113C56.9736 126.064 55.3769 126.816 54.5078 125.881C54.1717 125.519 54.0719 125.007 53.9856 124.523C52.6847 117.23 50.0092 110.906 49.265 103.221C49.0622 101.128 49.8654 99.0693 51.4659 97.6855C52.9813 96.3762 54.8523 94.9889 56.7452 95.6607C58.6439 96.3347 61.3142 99.4541 62.8577 100.738" fill="#1D2A30"/>
<path d="M56.9297 118.571C56.7378 118.51 49.2934 117.118 50.2493 124.389C51.2053 131.661 58.3995 129.214 58.3848 129.004C58.3703 128.793 56.9297 118.571 56.9297 118.571Z" fill="#C67C6C"/>
<path d="M55.7734 126.537C55.7383 126.517 55.6568 126.642 55.4532 126.768C55.2543 126.891 54.8995 127.003 54.4973 126.91C53.6824 126.728 52.8667 125.592 52.6588 124.287C52.5532 123.627 52.611 122.979 52.7796 122.426C52.9343 121.866 53.2342 121.449 53.6167 121.33C53.9942 121.192 54.302 121.387 54.4188 121.58C54.5446 121.772 54.5167 121.922 54.5573 121.93C54.5802 121.945 54.6995 121.788 54.6008 121.495C54.551 121.355 54.4424 121.194 54.2514 121.076C54.0555 120.958 53.7867 120.918 53.5174 120.982C52.9548 121.094 52.5117 121.676 52.3261 122.282C52.1094 122.894 52.029 123.625 52.1478 124.365C52.3876 125.825 53.3274 127.099 54.4313 127.266C54.9666 127.333 55.3784 127.124 55.5789 126.923C55.7834 126.714 55.8009 126.547 55.7734 126.537Z" fill="#864338"/>
<path d="M56.6069 96.8137C54.5008 94.0707 59.0691 89.4001 62.6021 87.9143C66.1353 86.4285 71.1097 87.7208 74.8546 88.5601C77.217 89.0892 79.6008 89.9158 82.0009 89.5851C83.6098 89.3642 85.0941 88.6354 86.5662 87.9565C88.0384 87.2776 89.5754 86.6269 91.1999 86.5804C92.8238 86.5333 94.5687 87.2213 95.3265 88.641C96.0843 90.06 95.407 92.1698 93.8273 92.5441C95.7617 91.2377 98.8627 92.4111 99.4196 94.6596C99.9766 96.908 97.7765 99.3625 95.4497 99.0903C96.4226 98.2025 98.1604 99.3464 98.159 100.654C98.1568 101.962 97.0607 103.019 95.9055 103.658C92.9584 105.291 89.3254 105.21 86.0328 104.457C82.7402 103.705 79.6214 102.338 76.3488 101.505C73.0762 100.671 67.5818 99.1388 64.5187 100.549C62.2629 101.587 60.9119 104.523 59.5329 104.036C58.1994 103.566 57.2615 102.325 56.8718 100.981C56.4817 99.6362 56.5429 98.2109 56.6069 96.8137Z" fill="#1D2A30"/>
<path d="M57.0203 119.818C57.2329 123.672 57.4488 127.552 58.3594 131.306C59.2694 135.061 60.9233 138.723 63.6634 141.476C67.2546 145.083 71.8982 148.541 76.952 149.362C82.471 150.26 89.2235 149.125 93.7162 145.833C95.8464 144.272 97.3983 140.9 96.7381 138.362C98.5521 137.542 99.8355 135.681 99.9445 133.714C100.054 131.747 98.8413 129.285 97.263 129.021C98.4496 128.829 98.785 126.972 98.3413 125.92C97.8784 124.823 96.3314 124.556 95.1499 124.781C93.9683 125.005 92.9377 125.694 91.9677 126.398C90.9976 127.1 90.0255 127.846 88.8816 128.214C86.7187 128.908 84.5386 128.141 82.3257 127.374C80.6335 126.788 78.922 126.201 77.1849 126.268C73.5583 126.407 70.3321 129.38 66.7385 128.881C64.7301 128.602 63.0024 127.23 61.8946 125.552C60.7867 123.874 61.2695 117.66 60.8335 115.704L57.0203 119.818Z" fill="#1D2A30"/>
<path d="M80.3928 137.59C80.3892 137.59 80.3857 137.589 80.3835 137.587C80.3501 137.563 80.5245 137.24 80.964 136.847C81.3963 136.455 82.1242 136.017 83.0265 135.855C83.2844 135.809 83.5365 135.789 83.7779 135.789C84.3826 135.789 84.921 135.914 85.3099 136.07C85.8612 136.286 86.1396 136.528 86.1168 136.561C86.1133 136.567 86.1062 136.57 86.0948 136.57C86.0107 136.57 85.708 136.429 85.233 136.3C84.8783 136.202 84.4182 136.122 83.9061 136.122C83.6447 136.122 83.3698 136.142 83.0885 136.193C82.2574 136.341 81.5672 136.711 81.1178 137.036C80.6912 137.34 80.4547 137.59 80.3928 137.59Z" fill="#2C434E"/>
<path d="M78.3202 128.479C78.5887 128.437 78.7674 130.217 80.4348 131.332C82.0992 132.451 84.0008 132.067 84.0393 132.314C84.0756 132.423 83.6454 132.701 82.8371 132.801C82.0444 132.904 80.8578 132.763 79.8379 132.081C78.8209 131.398 78.3145 130.402 78.1806 129.678C78.0388 128.941 78.1962 128.48 78.3202 128.479Z" fill="white"/>
<path d="M72.9636 148.17C72.9693 148.16 73.1303 148.219 73.428 148.34C73.7314 148.451 74.1808 148.61 74.7733 148.77C75.9535 149.099 77.707 149.45 79.8984 149.565C80.9924 149.627 82.1968 149.621 83.478 149.494C84.7607 149.389 86.1182 149.131 87.4992 148.719C88.8866 148.321 90.2783 147.697 91.603 146.871C92.9285 146.05 94.1962 145.006 95.1556 143.677C96.2894 142.105 96.8684 140.141 96.5629 138.404L96.5365 138.254L96.669 138.198C97.5785 137.814 98.3221 137.129 98.8947 136.386C99.1789 136.011 99.4267 135.615 99.6112 135.205C99.7928 134.801 99.8868 134.362 99.931 133.933C100.098 132.196 99.3142 130.585 98.2174 129.675L98.1148 129.591L98.1989 129.488C98.9232 128.6 98.9702 127.424 98.6362 126.594C98.3057 125.737 97.5963 125.238 96.9973 125.008C96.3848 124.771 95.8557 124.771 95.5124 124.804C95.1662 124.844 94.9903 124.906 94.9846 124.888C94.9846 124.888 95.1499 124.794 95.5017 124.728C95.8507 124.669 96.3998 124.642 97.0493 124.87C97.6839 125.088 98.4574 125.597 98.8356 126.515C99.2116 127.402 99.1931 128.662 98.409 129.656L98.3904 129.47C99.5677 130.421 100.416 132.108 100.256 133.963C100.212 134.422 100.117 134.89 99.9196 135.338C99.7244 135.78 99.4666 136.195 99.171 136.591C98.5742 137.373 97.8021 138.1 96.8072 138.526L96.9126 138.32C97.2537 140.22 96.6363 142.239 95.459 143.887C94.4611 145.27 93.1528 146.34 91.7967 147.174C90.4407 148.015 89.0134 148.646 87.5982 149.041C86.1887 149.453 84.807 149.703 83.5058 149.797C82.206 149.913 80.9874 149.903 79.8821 149.824C77.6699 149.673 75.91 149.28 74.7313 148.907C74.1409 148.724 73.695 148.542 73.3988 148.408C73.1068 148.263 72.9579 148.181 72.9636 148.17Z" fill="#365462"/>
<path d="M40.6767 129.607C40.6767 129.607 40.5298 129.58 40.3011 129.426C40.0741 129.274 39.7642 128.98 39.5538 128.496C39.3519 128.015 39.2395 127.354 39.4058 126.621C39.5636 125.881 40.0891 125.146 40.8219 124.564C41.5597 123.978 42.5031 123.544 43.5262 123.176C44.5436 122.801 45.6575 122.469 46.6746 121.855C47.6915 121.247 48.5206 120.268 49.048 119.097C49.5878 117.93 49.8474 116.595 49.8863 115.228C49.9458 112.475 49.3012 109.868 49.2303 107.438C49.1187 105.02 49.5897 102.749 50.7076 101.226C51.8101 99.701 53.2793 98.9961 54.2979 98.816C54.8125 98.7105 55.224 98.7393 55.4952 98.7562C55.7668 98.7977 55.9067 98.8258 55.9045 98.8378C55.9037 98.8871 55.3253 98.7281 54.3285 98.956C53.3505 99.172 51.9553 99.8888 50.9226 101.375C49.8796 102.851 49.444 105.048 49.5719 107.424C49.6571 109.811 50.315 112.415 50.2569 115.238C50.2168 116.644 49.9475 118.028 49.3789 119.247C48.8246 120.467 47.9358 121.508 46.8535 122.142C45.7771 122.78 44.6434 123.101 43.6307 123.462C42.6156 123.812 41.6983 124.221 40.9841 124.768C40.2753 125.311 39.7723 125.987 39.607 126.669C39.4326 127.352 39.5166 127.981 39.688 128.443C40.0688 129.389 40.7234 129.568 40.6767 129.607Z" fill="#365462"/>
<path d="M94.0701 92.4014C94.0659 92.3922 94.1763 92.3416 94.3949 92.2508C94.5032 92.2023 94.6413 92.1516 94.8115 92.1122C94.9796 92.0609 95.1769 92.0158 95.4062 91.9926C96.2958 91.8583 97.7808 92.0707 99.0343 93.2801L99.035 93.2815L99.0393 93.2864C99.8775 94.3255 100.378 95.921 100.14 97.646C99.9402 99.3745 98.8918 101.171 97.2195 102.411C95.5622 103.675 93.3536 104.406 91.0275 104.535C88.6943 104.675 86.2635 104.327 83.8363 103.754C79.8742 102.81 76.3182 101.123 73.4009 99.1895C71.9288 98.2496 70.5349 97.3519 69.123 96.7293C67.7194 96.092 66.3008 95.7747 64.9924 95.6882C62.3584 95.5172 60.2571 96.1919 58.9339 96.8004C57.5982 97.423 56.9639 97.9556 56.938 97.9169C56.938 97.9169 57.5384 97.3428 58.871 96.6724C60.1911 96.0167 62.3149 95.2893 65.0086 95.4293C66.3443 95.5003 67.8096 95.8134 69.2482 96.4522C70.6949 97.0755 72.1104 97.9746 73.5854 98.9053C76.4969 100.813 80.0039 102.462 83.9239 103.398C86.3241 103.964 88.7278 104.311 91.0055 104.18C93.2789 104.061 95.4134 103.361 97.0208 102.153C98.6418 100.965 99.6532 99.2648 99.8654 97.6094C100.113 95.9548 99.6546 94.4232 98.8712 93.4144L98.8762 93.4208C97.7117 92.2572 96.2844 92.0039 95.4176 92.1031C94.5259 92.1995 94.083 92.4415 94.0701 92.4014Z" fill="#365462"/>
<path d="M90.2961 86.2033C90.2961 86.2033 90.3453 86.8091 89.9607 87.8137C89.5718 88.8014 88.6139 90.1416 86.9167 91.0963C86.0805 91.5775 85.0763 91.9693 83.946 92.1494C82.82 92.3344 81.5914 92.3274 80.328 92.1635C77.7854 91.8525 75.1566 90.8627 72.391 90.0121C69.6353 89.1616 66.846 88.6565 64.3977 89.1785C61.9511 89.6745 60.0325 91.0393 58.7795 92.4118C57.5092 93.797 56.8379 95.197 56.5035 96.1847C56.1741 97.1816 56.1132 97.7669 56.0686 97.7592C56.0559 97.7578 56.0701 97.6122 56.1087 97.3364C56.1343 97.0571 56.2289 96.6568 56.3658 96.1418C56.6626 95.1267 57.3092 93.6795 58.5843 92.2388C59.8417 90.812 61.7953 89.3818 64.327 88.8478C66.8618 88.2893 69.7251 88.8056 72.4993 89.6618C75.2869 90.5201 77.8844 91.5071 80.3728 91.8293C81.6092 91.9989 82.8058 92.0157 83.8983 91.8497C84.9894 91.6886 85.968 91.3235 86.7878 90.8704C88.4501 89.9728 89.408 88.7029 89.8275 87.7581C90.2434 86.7971 90.2491 86.1949 90.2961 86.2033Z" fill="#365462"/>
<path d="M153.155 224.778C155.17 225.038 156.962 226.302 158.15 227.93C159.338 229.559 159.973 231.526 160.308 233.505C160.958 237.335 159.909 241.684 158.471 245.299C154.518 243.466 152.412 238.916 151.49 236.542C150.033 232.789 149.707 225.132 153.155 224.778Z" fill="#0EB69A"/>
<path d="M164.298 250.688C163.045 248.819 163.075 246.26 164.146 244.284C165.218 242.308 167.222 240.91 169.406 240.302C170.417 240.02 171.584 239.919 172.443 240.515C173.246 241.071 173.573 242.136 173.446 243.097C173.318 244.058 172.803 244.927 172.202 245.694C170.14 248.322 167.658 250.491 164.298 250.688Z" fill="#0EB69A"/>
<path d="M163.3 262.819C163.27 262.821 163.223 262.534 163.168 262.014C163.112 261.492 163.046 260.738 162.993 259.802C162.899 257.938 162.821 255.311 163.446 252.483C164.074 249.651 165.463 247.309 166.814 245.964C167.483 245.283 168.105 244.818 168.563 244.545C169.019 244.269 169.292 244.156 169.304 244.178C169.355 244.251 168.288 244.789 167.042 246.173C165.788 247.533 164.489 249.819 163.876 252.577C163.265 255.338 163.29 257.933 163.305 259.791C163.335 261.658 163.366 262.816 163.3 262.819Z" fill="#1D2A30"/>
<path d="M154.075 230.587C154.104 230.577 154.279 231.024 154.573 231.839C154.868 232.654 155.274 233.841 155.76 235.311C156.733 238.253 158.009 242.338 159.306 246.882C160.601 251.429 161.671 255.572 162.396 258.582C162.758 260.087 163.039 261.308 163.218 262.155C163.399 263.002 163.484 263.473 163.455 263.48C163.425 263.487 163.283 263.029 163.051 262.195C162.805 261.285 162.483 260.094 162.094 258.656C161.293 255.668 160.176 251.542 158.881 247C157.586 242.461 156.358 238.365 155.463 235.403C155.035 233.976 154.68 232.793 154.41 231.891C154.167 231.06 154.046 230.596 154.075 230.587Z" fill="#1D2A30"/>
<path d="M159.034 254.33C157.106 250.003 152.938 246.722 148.237 245.833C147.04 245.607 145.564 245.639 144.898 246.648C144.232 247.658 144.803 249.011 145.521 249.986C148.508 254.044 154.144 255.991 159.041 254.656" fill="#0EB69A"/>
<path d="M149.551 249.235C149.556 249.205 149.835 249.235 150.339 249.315C150.592 249.351 150.899 249.405 151.246 249.505C151.595 249.601 152.001 249.688 152.426 249.855C153.294 250.139 154.287 250.593 155.333 251.194C156.365 251.816 157.443 252.599 158.454 253.553C159.454 254.521 160.281 255.56 160.944 256.56C161.586 257.574 162.077 258.539 162.392 259.387C162.575 259.8 162.676 260.199 162.784 260.54C162.897 260.88 162.963 261.181 163.006 261.43C163.103 261.925 163.141 262.199 163.112 262.204C163.028 262.223 162.812 261.131 162.104 259.504C161.758 258.687 161.249 257.757 160.604 256.779C159.938 255.815 159.122 254.81 158.148 253.866C157.161 252.935 156.118 252.163 155.121 251.536C154.111 250.931 153.155 250.459 152.317 250.143C150.647 249.498 149.535 249.319 149.551 249.235Z" fill="#1D2A30"/>
</svg>
