<svg width="224" height="67" viewBox="0 0 224 67" fill="none" xmlns="http://www.w3.org/2000/svg">
<rect width="67" height="67" rx="8" fill="#FF6C7D"/>
<path d="M92.941 12.011C94.7424 12.011 96.188 12.5365 97.2777 13.5876C98.3897 14.6387 98.9456 16.1483 98.9456 18.1163V29.1191H94.3754V19.4581C94.3754 16.9086 93.3858 15.6339 91.4065 15.6339C90.339 15.6339 89.4272 16.0141 88.671 16.7744C87.9371 17.5348 87.5702 18.6977 87.5702 20.2632V29.1191H83V5H87.5702V15.1978C88.0817 14.1243 88.7934 13.3304 89.7052 12.8161C90.6392 12.2794 91.7178 12.011 92.941 12.011Z" fill="#050505"/>
<path d="M119.5 12.3464V29.1191H115.43L115.263 26.2342C114.195 28.3811 112.249 29.4546 109.425 29.4546C107.624 29.4546 106.189 28.9738 105.122 28.0121C104.077 27.0281 103.554 25.5074 103.554 23.45V12.3464H108.124V22.2759C108.124 23.573 108.369 24.4899 108.858 25.0266C109.347 25.5633 110.07 25.8317 111.026 25.8317C112.183 25.8317 113.117 25.4627 113.828 24.7247C114.562 23.9643 114.929 22.835 114.929 21.3366V12.3464H119.5Z" fill="#050505"/>
<path d="M145.191 12.011C146.903 12.011 148.315 12.5365 149.427 13.5876C150.562 14.6387 151.129 16.1483 151.129 18.1163V29.1191H146.558V19.022C146.558 17.8591 146.303 17.0093 145.791 16.4725C145.28 15.9134 144.579 15.6339 143.69 15.6339C142.622 15.6339 141.744 16.0253 141.054 16.808C140.365 17.5907 140.02 18.6865 140.02 20.0954V29.1191H135.45V19.022C135.45 17.8591 135.194 17.0093 134.683 16.4725C134.171 15.9134 133.459 15.6339 132.548 15.6339C131.547 15.6339 130.68 16.0253 129.946 16.808C129.234 17.5683 128.878 18.7089 128.878 20.2296V29.1191H124.308V12.3464H128.411L128.545 15.332C129.101 14.2362 129.857 13.4087 130.813 12.8496C131.791 12.2905 132.881 12.011 134.082 12.011C135.328 12.011 136.428 12.3017 137.385 12.8832C138.363 13.4646 139.075 14.3033 139.52 15.3991C140.053 14.3033 140.832 13.4646 141.855 12.8832C142.878 12.3017 143.99 12.011 145.191 12.011Z" fill="#050505"/>
<path d="M171.088 26.3349C171.555 26.3349 171.933 26.2901 172.222 26.2007L171.888 28.985C171.266 29.2981 170.543 29.4546 169.72 29.4546C167.585 29.4546 166.306 28.616 165.884 26.9387C165.395 27.7661 164.638 28.3923 163.615 28.8172C162.592 29.2421 161.38 29.4546 159.979 29.4546C158.356 29.4546 157.088 29.0856 156.176 28.3476C155.264 27.6096 154.809 26.5473 154.809 25.1608C154.809 22.4324 156.977 20.6657 161.314 19.8606L165.317 19.0891V18.284C165.317 17.3894 165.061 16.685 164.549 16.1706C164.06 15.6339 163.371 15.3655 162.481 15.3655C161.458 15.3655 160.624 15.5892 159.979 16.0364C159.334 16.4837 158.889 17.2105 158.645 18.2169L155.009 16.6738C155.365 15.2202 156.165 14.0796 157.411 13.2522C158.656 12.4247 160.279 12.011 162.281 12.011C164.661 12.011 166.518 12.5365 167.852 13.5876C169.186 14.6163 169.854 16.1483 169.854 18.1833V25.0602C169.854 25.5074 169.954 25.8317 170.154 26.033C170.354 26.2342 170.665 26.3349 171.088 26.3349ZM161.414 26.3349C162.392 26.3349 163.282 26.1001 164.082 25.6304C164.905 25.1384 165.317 24.4787 165.317 23.6512V21.9069L161.747 22.712C160.991 22.8909 160.424 23.1369 160.046 23.45C159.69 23.7407 159.512 24.1544 159.512 24.6912C159.512 25.2279 159.679 25.6416 160.013 25.9323C160.346 26.2007 160.813 26.3349 161.414 26.3349Z" fill="#050505"/>
<path d="M184.939 12.011C186.741 12.011 188.186 12.5365 189.276 13.5876C190.388 14.6387 190.944 16.1483 190.944 18.1163V29.1191H186.374V19.4581C186.374 16.9086 185.384 15.6339 183.405 15.6339C182.337 15.6339 181.425 16.0141 180.669 16.7744C179.935 17.5348 179.568 18.6977 179.568 20.2632V29.1191H174.998V12.3464H179.101L179.235 15.332C179.791 14.2362 180.558 13.4087 181.536 12.8496C182.515 12.2905 183.649 12.011 184.939 12.011Z" fill="#050505"/>
<path d="M92.4406 45.5564C93.219 45.5564 93.8195 45.6794 94.242 45.9254L93.6749 49.9508C93.1634 49.6154 92.4629 49.4477 91.5733 49.4477C90.4836 49.4477 89.5384 49.8502 88.7378 50.6553C87.9594 51.438 87.5702 52.545 87.5702 53.9763V62.6645H83V45.8918H86.9697L87.27 49.1793C88.1818 46.764 89.9053 45.5564 92.4406 45.5564Z" fill="#050505"/>
<path d="M112.326 54.2111C112.326 54.8373 112.282 55.4411 112.193 56.0226H100.384C100.851 58.3931 102.241 59.5784 104.554 59.5784C105.51 59.5784 106.299 59.3995 106.922 59.0416C107.545 58.6838 107.978 58.1695 108.223 57.4986L111.959 58.8739C111.426 60.2157 110.525 61.2445 109.257 61.9601C108.012 62.6534 106.444 63 104.554 63C101.796 63 99.661 62.2396 98.1487 60.7189C96.6364 59.1758 95.8803 57.0289 95.8803 54.2782C95.8803 51.5275 96.6142 49.3917 98.082 47.871C99.5498 46.3279 101.618 45.5564 104.287 45.5564C106.867 45.5564 108.846 46.3056 110.225 47.8039C111.626 49.3023 112.326 51.438 112.326 54.2111ZM104.253 48.9445C103.141 48.9445 102.252 49.2687 101.585 49.9173C100.94 50.5658 100.528 51.5275 100.35 52.8022H108.123C107.945 51.5498 107.523 50.5994 106.855 49.9508C106.188 49.2799 105.321 48.9445 104.253 48.9445Z" fill="#050505"/>
<path d="M120.667 57.3308C120.667 58.1359 120.778 58.695 121.001 59.0081C121.245 59.3212 121.679 59.4777 122.302 59.4777C122.68 59.4777 123.002 59.4554 123.269 59.4106C123.558 59.3436 123.892 59.2429 124.27 59.1087L123.87 62.2955C123.514 62.5192 123.047 62.6869 122.468 62.7987C121.89 62.9329 121.323 63 120.767 63C119.144 63 117.954 62.6086 117.198 61.8259C116.464 61.0208 116.097 59.7461 116.097 58.0017V38.5454H120.667V57.3308Z" fill="#050505"/>
<path d="M142.094 59.8803C142.561 59.8803 142.939 59.8356 143.228 59.7461L142.895 62.5304C142.272 62.8435 141.549 63 140.726 63C138.591 63 137.313 62.1614 136.89 60.4841C136.401 61.3116 135.645 61.9377 134.622 62.3626C133.599 62.7875 132.387 63 130.985 63C129.362 63 128.094 62.631 127.183 61.893C126.271 61.155 125.815 60.0927 125.815 58.7062C125.815 55.9778 127.983 54.2111 132.32 53.406L136.323 52.6345V51.8294C136.323 50.9348 136.067 50.2304 135.556 49.716C135.066 49.1793 134.377 48.9109 133.487 48.9109C132.464 48.9109 131.63 49.1346 130.985 49.5818C130.341 50.0291 129.896 50.7559 129.651 51.7623L126.015 50.2192C126.371 48.7656 127.171 47.625 128.417 46.7976C129.662 45.9701 131.286 45.5564 133.287 45.5564C135.667 45.5564 137.524 46.0819 138.858 47.133C140.193 48.1617 140.86 49.6937 140.86 51.7287V58.6056C140.86 59.0528 140.96 59.3771 141.16 59.5784C141.36 59.7796 141.672 59.8803 142.094 59.8803ZM132.42 59.8803C133.398 59.8803 134.288 59.6455 135.089 59.1758C135.912 58.6838 136.323 58.0241 136.323 57.1966V55.4523L132.754 56.2574C131.997 56.4363 131.43 56.6823 131.052 56.9954C130.696 57.2861 130.518 57.6998 130.518 58.2366C130.518 58.7733 130.685 59.187 131.019 59.4777C131.352 59.7461 131.819 59.8803 132.42 59.8803Z" fill="#050505"/>
<path d="M156.795 61.6246C156.261 62.0495 155.583 62.385 154.76 62.631C153.959 62.877 153.114 63 152.225 63C148.511 63 146.654 61.3116 146.654 57.9346V49.3135H143.618V45.8918H146.654V42.0341L151.224 40.7594V45.8918H156.628V49.3135H151.224V57.1966C151.224 58.7397 151.991 59.5113 153.526 59.5113C154.504 59.5113 155.361 59.1982 156.094 58.572L156.795 61.6246Z" fill="#050505"/>
<path d="M161.956 43.4766C160.066 43.4766 159.12 42.6603 159.12 41.0278C159.12 39.3729 160.066 38.5454 161.956 38.5454C163.846 38.5454 164.792 39.3729 164.792 41.0278C164.792 42.6603 163.846 43.4766 161.956 43.4766ZM164.224 62.6645H159.654V45.8918H164.224V62.6645Z" fill="#050505"/>
<path d="M176.742 45.5564C179.433 45.5564 181.523 46.3279 183.013 47.871C184.525 49.4141 185.282 51.5498 185.282 54.2782C185.282 57.0066 184.525 59.1423 183.013 60.6854C181.523 62.2285 179.433 63 176.742 63C174.051 63 171.949 62.2285 170.437 60.6854C168.947 59.1423 168.202 57.0066 168.202 54.2782C168.202 51.5498 168.947 49.4141 170.437 47.871C171.949 46.3279 174.051 45.5564 176.742 45.5564ZM176.742 48.978C175.452 48.978 174.462 49.4253 173.773 50.3198C173.105 51.192 172.772 52.5115 172.772 54.2782C172.772 56.0449 173.105 57.3756 173.773 58.2701C174.462 59.1423 175.452 59.5784 176.742 59.5784C178.032 59.5784 179.01 59.1423 179.677 58.2701C180.367 57.3756 180.711 56.0449 180.711 54.2782C180.711 52.5115 180.367 51.192 179.677 50.3198C179.01 49.4253 178.032 48.978 176.742 48.978Z" fill="#050505"/>
<path d="M199.143 45.5564C200.944 45.5564 202.39 46.0819 203.479 47.133C204.591 48.1841 205.147 49.6937 205.147 51.6617V62.6645H200.577V53.0035C200.577 50.454 199.588 49.1793 197.608 49.1793C196.541 49.1793 195.629 49.5595 194.873 50.3198C194.139 51.0802 193.772 52.2431 193.772 53.8086V62.6645H189.202V45.8918H193.305L193.438 48.8774C193.994 47.7816 194.762 46.9541 195.74 46.395C196.719 45.8359 197.853 45.5564 199.143 45.5564Z" fill="#050505"/>
<path d="M216.327 63C212.613 63 210.034 61.9265 208.588 59.7796L211.257 57.0289C211.702 57.9906 212.335 58.6726 213.158 59.0752C214.003 59.4554 215.038 59.6455 216.261 59.6455C217.239 59.6455 217.995 59.5113 218.529 59.2429C219.063 58.9746 219.33 58.6056 219.33 58.1359C219.33 57.7557 219.074 57.4315 218.562 57.1631C218.073 56.8947 217.217 56.6376 215.994 56.3916C213.436 55.8772 211.635 55.2063 210.59 54.3788C209.567 53.529 209.055 52.3885 209.055 50.9572C209.055 50.0179 209.344 49.1346 209.922 48.3071C210.501 47.4797 211.357 46.8199 212.491 46.3279C213.625 45.8136 214.982 45.5564 216.561 45.5564C218.429 45.5564 219.941 45.8471 221.098 46.4286C222.254 46.9877 223.222 47.8822 224 49.1122L221.164 51.5275C220.675 50.6329 220.064 49.9732 219.33 49.5483C218.618 49.1234 217.717 48.9109 216.628 48.9109C215.716 48.9109 214.982 49.0675 214.426 49.3806C213.892 49.6937 213.625 50.0738 213.625 50.5211C213.625 50.9907 213.892 51.3821 214.426 51.6952C214.96 52.0083 215.905 52.299 217.261 52.5674C219.686 53.0594 221.398 53.7079 222.399 54.513C223.422 55.2957 223.933 56.3916 223.933 57.8005C223.933 59.3659 223.266 60.6295 221.932 61.5911C220.62 62.5304 218.751 63 216.327 63Z" fill="#050505"/>
<path d="M21.0761 32.48C22.2761 30 24.4494 28.76 27.5961 28.76C29.6761 28.76 31.1428 29.28 31.9961 30.32C32.4494 30.8267 32.7694 31.4933 32.9561 32.32C33.1694 33.12 33.2761 34.1867 33.2761 35.52V46.28C33.2761 47.3733 33.4628 48.1333 33.8361 48.56C34.2094 48.96 34.8761 49.16 35.8361 49.16V50C33.0628 49.8933 31.3028 49.84 30.5561 49.84C29.6494 49.84 27.9161 49.8933 25.3561 50V49.16C26.1561 49.16 26.7161 48.96 27.0361 48.56C27.3561 48.1333 27.5161 47.3733 27.5161 46.28V33.84C27.5161 32.7467 27.3294 31.92 26.9561 31.36C26.6094 30.8 25.9694 30.52 25.0361 30.52C23.9161 30.52 22.9694 30.96 22.1961 31.84C21.4494 32.6933 21.0761 33.7867 21.0761 35.12V46.28C21.0761 47.3733 21.2361 48.1333 21.5561 48.56C21.8761 48.96 22.4361 49.16 23.2361 49.16V50C20.6761 49.8933 19.0228 49.84 18.2761 49.84C17.3694 49.84 15.5294 49.8933 12.7561 50V49.16C13.6894 49.16 14.3428 48.96 14.7161 48.56C15.1161 48.1333 15.3161 47.3733 15.3161 46.28V23.52C15.3161 22.2933 15.1161 21.4 14.7161 20.84C14.3428 20.28 13.6894 20 12.7561 20V19.16C13.6094 19.24 14.4361 19.28 15.2361 19.28C17.5561 19.28 19.5028 19.0933 21.0761 18.72V32.48ZM51.052 28.76C52.252 28.76 53.1587 29.12 53.772 29.84C54.3854 30.56 54.692 31.4267 54.692 32.44C54.692 33.4267 54.3987 34.24 53.812 34.88C53.252 35.4933 52.5054 35.8 51.572 35.8C50.6654 35.8 49.9454 35.5733 49.412 35.12C48.8787 34.64 48.612 34.0133 48.612 33.24C48.612 31.96 49.1987 30.92 50.372 30.12C50.2654 30.0933 50.1054 30.08 49.892 30.08C49.6254 30.08 49.412 30.1067 49.252 30.16C48.2387 30.32 47.372 30.9333 46.652 32C45.9587 33.0667 45.612 34.16 45.612 35.28V45.88C45.612 47.1067 45.9054 47.96 46.492 48.44C47.1054 48.92 48.0654 49.16 49.372 49.16V50C48.9987 50 48.692 49.9867 48.452 49.96C45.732 49.88 43.9187 49.84 43.012 49.84C42.292 49.84 40.652 49.88 38.092 49.96C37.8787 49.9867 37.612 50 37.292 50V49.16C38.252 49.16 38.9187 48.96 39.292 48.56C39.6654 48.1333 39.852 47.3733 39.852 46.28V33.68C39.852 32.4533 39.6654 31.56 39.292 31C38.9187 30.44 38.252 30.16 37.292 30.16V29.32C38.1454 29.4 38.972 29.44 39.772 29.44C42.1454 29.44 44.092 29.2533 45.612 28.88V32.6C46.1187 31.4533 46.852 30.5333 47.812 29.84C48.772 29.12 49.852 28.76 51.052 28.76Z" fill="white"/>
</svg>
